<svg width="26" height="32" viewBox="0 0 26 32" fill="none" xmlns="http://www.w3.org/2000/svg">
<g clip-path="url(#clip0_36_3564)">
<path d="M20.9848 16.885C20.9478 12.965 24.1628 11.055 24.3088 10.967C22.4888 8.28505 19.6688 7.91905 18.6788 7.88805C16.3108 7.63705 14.0128 9.32205 12.8068 9.32205C11.5738 9.32205 9.71677 7.91505 7.71477 7.95605C5.14077 7.99605 2.72877 9.50305 1.40377 11.846C-1.32323 16.62 0.71277 23.636 3.32677 27.493C4.63177 29.383 6.15977 31.494 8.15977 31.42C10.1158 31.336 10.8468 30.158 13.2118 30.158C15.5498 30.158 16.2348 31.42 18.2768 31.37C20.3768 31.336 21.6988 29.473 22.9608 27.567C24.4718 25.398 25.0798 23.267 25.1028 23.156C25.0528 23.139 21.0238 21.588 20.9848 16.885ZM17.1308 5.35105C18.1838 4.02205 18.9048 2.21305 18.7018 0.373047C17.1808 0.443047 15.2738 1.44105 14.1778 2.74005C13.2078 3.88805 12.3408 5.76805 12.5638 7.53305C14.2738 7.66105 16.0318 6.66105 17.1308 5.35105Z" fill="white"/>
</g>
<defs>
<clipPath id="clip0_36_3564">
<rect width="26" height="32" fill="white"/>
</clipPath>
</defs>
</svg>
