<svg width="96" height="40" viewBox="0 0 96 40" fill="none" xmlns="http://www.w3.org/2000/svg">
<path fill-rule="evenodd" clip-rule="evenodd" d="M48.5 5.893C48.329 6.03 48.161 6.171 47.997 6.316C45.197 8.792 43.425 12.438 43.425 16.507C43.425 20.577 45.197 24.222 47.997 26.699C48.161 26.844 48.329 26.985 48.5 27.122C48.671 26.985 48.839 26.844 49.003 26.699C51.803 24.222 53.575 20.577 53.575 16.507C53.575 12.438 51.803 8.792 49.003 6.317C48.839 6.171 48.671 6.03 48.5 5.893ZM56.712 3C53.992 3 51.462 3.831 49.356 5.258C49.464 5.348 49.573 5.435 49.677 5.528C52.808 8.296 54.603 12.298 54.603 16.508C54.603 20.716 52.808 24.718 49.678 27.487C49.574 27.579 49.464 27.667 49.356 27.757C51.462 29.183 53.992 30.015 56.712 30.015C64.051 30.015 70 23.967 70 16.507C70 9.047 64.05 3 56.712 3ZM47.322 27.487C47.426 27.579 47.536 27.667 47.644 27.757C45.538 29.183 43.008 30.015 40.288 30.015C32.948 30.015 27 23.967 27 16.507C27 9.047 32.949 3 40.288 3C43.008 3 45.538 3.831 47.644 5.258C47.536 5.348 47.427 5.435 47.323 5.528C44.193 8.296 42.397 12.298 42.397 16.508C42.397 20.717 44.192 24.718 47.323 27.487H47.322ZM69.584 24.877V24.353H69.449L69.294 24.713L69.139 24.353H69.005V24.877H69.1V24.482L69.245 24.822H69.343L69.489 24.482V24.877H69.584ZM68.731 24.877V24.443H68.903V24.354H68.464V24.443H68.637V24.877H68.731ZM69.146 36.539V36.627H69.226C69.244 36.627 69.259 36.623 69.27 36.617C69.281 36.609 69.286 36.597 69.286 36.582C69.286 36.568 69.281 36.557 69.27 36.55C69.26 36.543 69.244 36.539 69.226 36.539H69.146ZM69.227 36.477C69.269 36.477 69.301 36.487 69.324 36.505C69.346 36.525 69.358 36.55 69.358 36.582C69.358 36.61 69.348 36.632 69.33 36.65C69.312 36.668 69.287 36.679 69.254 36.683L69.36 36.808H69.277L69.178 36.684H69.146V36.808H69.076V36.477H69.227ZM69.207 36.922C69.244 36.922 69.28 36.914 69.312 36.9C69.345 36.885 69.373 36.865 69.398 36.84C69.423 36.815 69.442 36.786 69.456 36.752C69.47 36.718 69.477 36.682 69.477 36.644C69.477 36.605 69.47 36.569 69.456 36.535C69.442 36.502 69.423 36.472 69.398 36.447C69.373 36.422 69.345 36.402 69.312 36.388C69.28 36.374 69.244 36.367 69.206 36.367C69.168 36.367 69.132 36.374 69.099 36.388C69.065 36.402 69.036 36.422 69.011 36.447C68.987 36.472 68.967 36.502 68.953 36.535C68.939 36.569 68.933 36.605 68.933 36.644C68.933 36.682 68.939 36.718 68.953 36.752Cnan nan 68.987 36.815 69.011 36.84C69.036 36.865 69.065 36.885 69.099 36.9C69.132 36.914 69.168 36.922 69.206 36.922H69.207ZM69.207 36.287C69.256 36.287 69.302 36.297 69.345 36.315C69.388 36.334 69.426 36.359 69.459 36.392C69.491 36.424 69.516 36.462 69.535 36.505C69.554 36.549 69.563 36.595 69.563 36.644C69.563 36.693 69.553 36.738 69.535 36.782C69.516 36.825 69.491 36.862 69.459 36.895C69.426 36.927 69.389 36.953 69.345 36.972C69.302 36.991 69.255 37 69.206 37C69.156 37 69.109 36.99 69.066 36.972C69.021 36.952 68.983 36.927 68.951 36.895Cnan nan 68.894 36.825 68.875 36.782C68.857 36.738 68.847 36.692 68.847 36.644C68.847 36.594 68.857 36.549 68.875 36.505C68.894 36.462 68.919 36.425 68.951 36.392Cnan nan 69.021 36.334 69.065 36.315C69.109 36.296 69.155 36.287 69.206 36.287H69.207ZM36.29 35.014C36.29 34.384 36.696 33.866 37.36 33.866C37.995 33.866 38.424 34.361 38.424 35.014C38.424 35.667 37.995 36.162 37.361 36.162C36.696 36.162 36.291 35.644 36.291 35.014H36.29ZM39.147 35.014V33.22H38.379V33.655C38.136 33.332 37.767 33.13 37.265 33.13C36.275 33.13 35.501 33.917 35.501 35.013C35.501 36.108 36.276 36.896 37.265 36.896C37.767 36.896 38.135 36.694 38.379 36.371V36.806H39.147V35.013V35.014ZM65.069 35.014C65.069 34.384 65.475 33.866 66.139 33.866C66.774 33.866 67.202 34.361 67.202 35.014C67.202 35.667 66.774 36.162 66.14 36.162C65.475 36.162 65.07 35.644 65.07 35.014H65.069ZM67.926 35.014V31.78H67.158V33.656C66.914 33.333 66.545 33.131 66.044 33.131C65.054 33.131 64.279 33.918 64.279 35.014C64.279 36.109 65.054 36.897 66.044 36.897C66.545 36.897 66.914 36.695 67.158 36.372V36.807H67.926V35.014ZM48.668 33.828C49.163 33.828 49.48 34.143 49.562 34.698H47.732C47.812 34.181 48.122 33.828 48.668 33.828ZM48.683 33.131C47.65 33.131 46.927 33.896 46.927 35.014C46.927 36.154 47.679 36.897 48.735 36.897C49.266 36.897 49.754 36.762 50.182 36.394L49.805 35.817C49.51 36.057 49.133 36.192 48.779 36.192C48.285 36.192 47.834 35.959 47.724 35.314H50.344C50.352 35.216 50.359 35.119 50.359 35.014C50.352 33.896 49.672 33.131 48.683 33.131ZM57.947 35.014C57.947 34.384 58.352 33.866 59.017 33.866C59.652 33.866 60.08 34.361 60.08 35.014C60.08 35.667 59.652 36.162 59.017 36.162C58.352 36.162 57.947 35.644 57.947 35.014ZM60.803 35.014V33.22H60.035V33.655C59.792 33.332 59.423 33.13 58.921 33.13C57.931 33.13 57.157 33.917 57.157 35.013C57.157 36.108 57.932 36.896 58.921 36.896C59.423 36.896 59.791 36.694 60.035 36.371V36.806H60.803V35.013V35.014ZM53.613 35.014C53.613 36.102 54.359 36.897 55.496 36.897C56.028 36.897 56.382 36.777 56.766 36.469L56.396 35.839C56.108 36.049 55.806 36.162 55.474 36.162C54.861 36.154 54.411 35.704 54.411 35.014Cnan nan 54.861 33.874 55.474 33.866C55.806 33.866 56.108 33.978 56.396 34.189L56.766 33.559C56.382 33.251 56.028 33.131 55.496 33.131C54.359 33.131 53.614 33.926 53.614 35.014H53.613ZM63.505 33.131C63.062 33.131 62.774 33.341 62.575 33.656V33.221H61.815V36.807H62.582V34.796C62.582 34.204 62.832 33.873 63.335 33.873C63.49 33.873 63.652 33.896 63.815 33.963L64.051 33.228C63.881 33.161 63.659 33.131 63.505 33.131ZM42.941 33.506C42.571 33.258 42.062 33.131 41.501 33.131C40.608 33.131 40.032 33.566 40.032 34.278C40.032 34.864 40.461 35.224 41.251 35.336L41.612 35.389C42.032 35.449 42.232 35.561 42.232 35.764C42.232 36.042 41.952 36.199 41.428 36.199C40.896 36.199 40.512 36.027 40.254 35.824L39.892 36.432C40.313 36.747 40.844 36.897 41.42 36.897C42.439 36.897 43.03 36.409 43.03 35.727C43.03 35.097 42.564 34.766 41.797 34.653L41.435 34.601C41.103 34.556 40.837 34.489 40.837 34.249C40.837 33.986 41.088 33.829 41.509 33.829C41.959 33.829 42.394 34.001 42.609 34.136L42.941 33.506ZM52.839 33.131C52.396 33.131 52.109 33.341 51.909 33.656V33.221H51.149V36.807H51.916V34.796C51.916 34.204 52.167 33.873 52.669 33.873C52.824 33.873 52.987 33.896 53.149 33.963L53.385 33.228C53.215 33.161 52.994 33.131 52.839 33.131ZM46.292 33.221H45.037V32.132H44.262V33.221H43.546V33.933H44.262V35.569C44.262 36.402 44.579 36.897 45.487 36.897C45.819 36.897 46.203 36.792 46.447 36.62L46.225 35.952C45.996 36.087 45.745 36.154 45.546 36.154C45.162 36.154 45.036 35.914 45.036 35.554V33.934H46.292V33.221ZM34.822 36.807V34.556C34.822 33.708 34.29 33.138 33.434 33.131C32.984 33.123 32.519 33.266 32.194 33.768C31.95 33.371 31.566 33.131 31.028 33.131C30.651 33.131 30.282 33.243 29.994 33.663V33.221H29.227V36.807H30.002V34.82C30.002 34.197 30.342 33.867 30.865 33.867C31.375 33.867 31.633 34.205 31.633 34.812V36.808H32.408V34.82C32.408 34.197 32.762 33.867 33.272 33.867C33.796 33.867 34.046 34.205 34.046 34.812V36.808H34.821L34.822 36.807Z" fill="#FFFFFE"/>
</svg>
