<svg width="16" height="16" viewBox="0 0 16 16" fill="none" xmlns="http://www.w3.org/2000/svg">
    <g clip-path="url(#clip0_36_3590)">
        <mask id="mask0_36_3590" style="mask-type:luminance" maskUnits="userSpaceOnUse" x="0" y="0" width="16" height="16">
            <path d="M0 0H16V16H0V0Z" fill="white" />
        </mask>
        <g mask="url(#mask0_36_3590)">
            <path d="M8 0C6.41775 0 4.87103 0.469192 3.55544 1.34824C2.23984 2.22729 1.21446 3.47672 0.608967 4.93853C0.00346655 6.40034 -0.154961 8.00887 0.153721 9.56072C0.462403 11.1126 1.22432 12.538 2.34314 13.6569C3.46196 14.7757 4.88743 15.5376 6.43928 15.8463C7.99112 16.155 9.59966 15.9965 11.0614 15.391C12.5232 14.7855 13.7727 13.7602 14.6517 12.4446C15.5308 11.129 16 9.58225 16 8C16 5.87827 15.1571 3.84344 13.6568 2.34315C12.1565 0.842854 10.1217 0 8 0ZM12.0577 5.89986C11.8687 6.69194 11.321 8.21612 10.8707 9.25035C9.9587 11.3573 9.02178 12.8849 8.09731 13.8229C7.30523 14.6003 6.24837 15.2362 5.05912 14.7496C3.70127 14.1952 3.64243 13.0059 3.67411 11.8993C3.72164 10.6025 4.20933 8.85884 5.12588 6.75304C6.04243 4.64724 6.98274 3.10042 7.89929 2.18048C8.69137 1.40198 9.69392 0.716266 10.9193 1.21754C12.5533 1.88515 12.6314 3.60056 12.0577 5.89986Z" fill="white" />
        </g>
    </g>
    <defs>
        <clipPath id="clip0_36_3590">
            <rect width="16" height="16" fill="white" />
        </clipPath>
    </defs>
</svg>