<svg width="32" height="32" viewBox="0 0 32 32" fill="none" xmlns="http://www.w3.org/2000/svg">
<path fill-rule="evenodd" clip-rule="evenodd" d="M21.3759 1.19824V1.22189C21.3772 1.65022 21.5027 7.84214 28.0007 8.22836C28.0007 13.9888 28.0036 8.22836 28.0036 13.0126C27.5153 13.0415 23.7264 12.7678 21.3685 10.6647L21.3613 19.9784C21.4196 24.1959 19.0719 28.3316 14.6767 29.1651C13.4453 29.3983 12.3365 29.4245 10.4752 29.0179C-0.247294 25.8105 3.31572 9.90712 14.0821 11.6091C14.0821 16.7433 14.0851 11.6076 14.0851 16.7433C9.63741 16.0889 8.14953 19.7889 9.33139 22.4383C10.407 24.8501 14.8356 25.3732 16.3803 21.9705C16.5551 21.3045 16.6427 20.5453 16.6427 19.6928V1.19824H21.3759Z" fill="#FFFFFE"/>
</svg>
