<svg width="96" height="40" viewBox="0 0 96 40" fill="none" xmlns="http://www.w3.org/2000/svg">
<path fill-rule="evenodd" clip-rule="evenodd" d="M57.4 10C59.37 10 60.955 10.42 62.186 10.855L61.29 14.958C59.188 14.012 57.314 13.995 56.452 14.071L56.242 14.093C54.764 14.281 54.088 15.02 54.072 15.713C54.025 17.993 61.264 18.277 61.241 23.381C61.225 27.403 57.708 30 52.33 30C50.045 29.976 47.838 29.51 46.64 28.973L47.57 24.733C48.759 25.275 50.25 25.995 52.826 25.955C54.294 25.934 55.872 25.359 55.886 24.062C55.896 23.215 55.226 22.606 53.231 21.658L53.035 21.564C51.126 20.626 48.722 19.086 48.753 16.394C48.78 12.628 52.34 10 57.4 10ZM47.358 10.353L43.128 29.696H38.009L42.241 10.353H47.358ZM75.199 10.353L79.333 29.696H74.601L73.981 26.808H67.416L66.349 29.696H60.975L68.654 11.771C69.02 10.911 69.85 10.353 70.834 10.353H75.199ZM24.829 10.353C25.939 10.353 26.936 11.075 27.19 12.324L29.346 23.518L34.669 10.353H40.046L31.754 29.696H26.344L22.265 14.26C22.017 13.31 21.8 12.961 21.049 12.56C19.818 11.906 17.786 11.295 16 10.915L16.12 10.353H24.83H24.829ZM71.583 15.58L68.889 22.845H73.133L71.583 15.58Z" fill="white"/>
</svg>
