<svg width="40" height="30" viewBox="0 0 40 30" fill="none" xmlns="http://www.w3.org/2000/svg">
<g clip-path="url(#clip0_167_57)">
<mask id="mask0_167_57" style="mask-type:luminance" maskUnits="userSpaceOnUse" x="0" y="0" width="40" height="30">
<path d="M5 0H35C37.7596 0 40 2.24042 40 5V25C40 27.7596 37.7596 30 35 30H5C2.24042 30 0 27.7596 0 25V5C0 2.24042 2.24042 0 5 0V0" fill="white"/>
</mask>
<g mask="url(#mask0_167_57)">
<path d="M35 0H5C2.23857 0 0 2.23857 0 5V25C0 27.7614 2.23857 30 5 30H35C37.7614 30 40 27.7614 40 25V5C40 2.23857 37.7614 0 35 0V0" fill="url(#paint0_linear_167_57)"/>
<path opacity="0.1" d="M46.875 86.25C68.6213 86.25 86.25 68.6213 86.25 46.875C86.25 25.1287 68.6213 7.5 46.875 7.5C25.1287 7.5 7.5 25.1287 7.5 46.875C7.5 68.6213 25.1287 86.25 46.875 86.25V86.25" fill="url(#paint1_linear_167_57)"/>
<path opacity="0.1" d="M8.125 56.25C19.5159 56.25 28.75 47.0159 28.75 35.625C28.75 24.2341 19.5159 15 8.125 15C-3.26587 15 -12.5 24.2341 -12.5 35.625C-12.5 47.0159 -3.26587 56.25 8.125 56.25V56.25" fill="url(#paint2_linear_167_57)"/>
<path opacity="0.1" d="M53.125 27.5C71.4194 27.5 86.25 12.6694 86.25 -5.625C86.25 -23.9194 71.4194 -38.75 53.125 -38.75C34.8306 -38.75 20 -23.9194 20 -5.625C20 12.6694 34.8306 27.5 53.125 27.5V27.5" fill="url(#paint3_linear_167_57)"/>
<path d="M12.5 8.75H6.25C5.55964 8.75 5 9.30964 5 10V13.75C5 14.4403 5.55964 15 6.25 15H12.5C13.1903 15 13.75 14.4403 13.75 13.75V10C13.75 9.30964 13.1903 8.75 12.5 8.75V8.75" fill="black"/>
<path d="M12.5 8.75H6.25C5.55964 8.75 5 9.30964 5 10V13.75C5 14.4403 5.55964 15 6.25 15H12.5C13.1903 15 13.75 14.4403 13.75 13.75V10C13.75 9.30964 13.1903 8.75 12.5 8.75V8.75" fill="url(#paint4_linear_167_57)"/>
<path opacity="0.3" d="M7.5 10H6.25V13.75H7.5V10V10" fill="#7A3802"/>
<path opacity="0.3" d="M10 10H8.75V13.75H10V10V10" fill="#7A3802"/>
<path opacity="0.3" d="M12.5 10H11.25V13.75H12.5V10V10" fill="#7A3802"/>
<path d="M11.25 18.75H5V20H11.25V18.75V18.75" fill="white" fill-opacity="0.8"/>
<path d="M8.75 21.25H5V22.5H8.75V21.25V21.25" fill="white" fill-opacity="0.8"/>
<path d="M13.75 21.25H10V22.5H13.75V21.25V21.25" fill="white" fill-opacity="0.8"/>
<path d="M18.75 21.25H15V22.5H18.75V21.25V21.25" fill="white" fill-opacity="0.8"/>
<path d="M18.75 18.75H12.5V20H18.75V18.75V18.75" fill="white" fill-opacity="0.8"/>
<path d="M26.25 18.75H20V20H26.25V18.75V18.75" fill="white" fill-opacity="0.8"/>
<path d="M33.75 18.75H27.5V20H33.75V18.75V18.75" fill="white" fill-opacity="0.8"/>
</g>
</g>
<defs>
<linearGradient id="paint0_linear_167_57" x1="-20" y1="15" x2="8.79998" y2="-23.4" gradientUnits="userSpaceOnUse">
<stop stop-color="#060B0E"/>
<stop offset="1" stop-color="#254764"/>
</linearGradient>
<linearGradient id="paint1_linear_167_57" x1="23.8196" y1="29.549" x2="19.8462" y2="18.6628" gradientUnits="userSpaceOnUse">
<stop stop-color="white" stop-opacity="0"/>
<stop offset="1" stop-color="white"/>
</linearGradient>
<linearGradient id="paint2_linear_167_57" x1="-1.04742" y1="58.5305" x2="-5.60839" y2="40.1856" gradientUnits="userSpaceOnUse">
<stop stop-color="white" stop-opacity="0"/>
<stop offset="1" stop-color="white"/>
</linearGradient>
<linearGradient id="paint3_linear_167_57" x1="60.531" y1="-5.62562" x2="67.8564" y2="23.8372" gradientUnits="userSpaceOnUse">
<stop stop-color="white" stop-opacity="0"/>
<stop offset="1" stop-color="white"/>
</linearGradient>
<linearGradient id="paint4_linear_167_57" x1="13.75" y1="8.75" x2="13.75" y2="15" gradientUnits="userSpaceOnUse">
<stop stop-color="#FAD961"/>
<stop offset="1" stop-color="#F7955D"/>
</linearGradient>
<clipPath id="clip0_167_57">
<rect width="40" height="30" fill="white"/>
</clipPath>
</defs>
</svg>
