<svg width="40" height="30" viewBox="0 0 40 30" fill="none" xmlns="http://www.w3.org/2000/svg">
<g clip-path="url(#clip0_167_156)">
<path d="M5 0H35C37.7596 0 40 2.24042 40 5V25C40 27.7596 37.7596 30 35 30H5C2.24042 30 0 27.7596 0 25V5C0 2.24042 2.24042 0 5 0V0" fill="#FFA8CD"/>
<path d="M33.7471 18.1475C32.9623 18.1475 32.3505 17.4985 32.3505 16.7104C32.3505 15.9223 32.9623 15.2733 33.7471 15.2733C34.532 15.2733 35.1436 15.9223 35.1436 16.7104C35.1436 17.4985 34.532 18.1475 33.7471 18.1475V18.1475M33.3545 19.6658C34.024 19.6658 34.8782 19.4108 35.3516 18.414L35.3976 18.4373C35.19 18.9819 35.19 19.3065 35.19 19.3877V19.5152H36.875V13.9057H35.19V14.0332C35.19 14.1143 35.19 14.4388 35.3976 14.9835L35.3516 15.0068C34.8782 14.01 34.024 13.755 33.3545 13.755C31.7504 13.755 30.6192 15.0299 30.6192 16.7104C30.6192 18.3909 31.7504 19.6658 33.3545 19.6658V19.6658M27.6874 13.755C26.9255 13.755 26.3252 14.0217 25.8405 15.0068L25.7944 14.9835C26.0021 14.4388 26.0021 14.1143 26.0021 14.0332V13.9057H24.317V19.5152H26.0483V16.5598C26.0483 15.7833 26.4985 15.2964 27.2256 15.2964C27.9529 15.2964 28.3106 15.7137 28.3106 16.5482V19.5152H30.042V15.9455C30.042 14.6707 29.0492 13.755 27.6874 13.755V13.755M21.8123 15.0068L21.766 14.9835C21.9738 14.4388 21.9737 14.1143 21.9737 14.0332V13.9057H20.2886V19.5152H22.02L22.0315 16.8147C22.0315 16.0267 22.447 15.5514 23.1281 15.5514C23.3127 15.5514 23.4627 15.5747 23.636 15.621V13.9057C22.8741 13.7434 22.1931 14.0332 21.8123 15.0068V15.0068M16.3065 18.1475C15.5216 18.1475 14.9099 17.4985 14.9099 16.7104C14.9099 15.9223 15.5216 15.2733 16.3065 15.2733C17.0914 15.2733 17.7031 15.9223 17.7031 16.7104C17.7031 17.4985 17.0914 18.1475 16.3065 18.1475V18.1475M15.914 19.6658C16.5835 19.6658 17.4376 19.4108 17.9109 18.414L17.957 18.4373C17.7492 18.9819 17.7493 19.3065 17.7493 19.3877V19.5152H19.4345V13.9057H17.7493V14.0332C17.7493 14.1143 17.7492 14.4388 17.957 14.9835L17.9109 15.0068C17.4376 14.01 16.5835 13.755 15.914 13.755C14.3096 13.755 13.1785 15.0299 13.1785 16.7104C13.1785 18.3909 14.3096 19.6658 15.914 19.6658V19.6658M10.7661 19.5152H12.4975V11.4023H10.7661V19.5152V19.5152M9.49644 11.4023H7.73042C7.73042 12.851 6.84166 14.149 5.4912 15.0763L4.96024 15.4472V11.4023H3.125V19.5152H4.96024V15.4935L7.9959 19.5152H10.2352L7.3149 15.6673C8.64227 14.7054 9.50798 13.2103 9.49644 11.4023V11.4023" fill="#0B051D"/>
</g>
<defs>
<clipPath id="clip0_167_156">
<rect width="40" height="30" fill="white"/>
</clipPath>
</defs>
</svg>
