<svg width="32" height="24" viewBox="0 0 32 24" fill="none" xmlns="http://www.w3.org/2000/svg">
<g clip-path="url(#clip0_167_102)">
<path d="M27.0766 0.922852H4.92278C2.88357 0.922852 1.23047 2.57595 1.23047 4.61516V19.3844C1.23047 21.4236 2.88357 23.0767 4.92278 23.0767H27.0766C29.1158 23.0767 30.7689 21.4236 30.7689 19.3844V4.61516C30.7689 2.57595 29.1158 0.922852 27.0766 0.922852V0.922852" fill="white"/>
<path d="M27.0766 0.922852H4.92278C2.88357 0.922852 1.23047 2.57595 1.23047 4.61516V19.3844C1.23047 21.4236 2.88357 23.0767 4.92278 23.0767H27.0766C29.1158 23.0767 30.7689 21.4236 30.7689 19.3844V4.61516C30.7689 2.57595 29.1158 0.922852 27.0766 0.922852V0.922852" stroke="#EEEEEE" stroke-width="0.923077"/>
<path fill-rule="evenodd" clip-rule="evenodd" d="M27.8345 12.8252L27.2406 14.1004L27.2598 14.1163C27.4809 14.3089 27.6093 14.5887 27.6229 14.924L27.6241 14.9838C27.6241 15.6946 27.1384 16.216 26.3778 16.216H24.6072V16.2144H19.2074L18.7735 15.6804V16.2144H17.3516V15.3027C17.3516 15.3027 17.1574 15.43 16.7375 15.43H16.2535V16.2144H14.1007L13.7165 15.7019L13.3263 16.2144H9.76172V12.8266H13.3487L13.7336 13.3283L14.1312 12.8266H25.8597C25.8864 12.8257 25.9134 12.8252 25.9409 12.8252H27.8345V12.8252" fill="white"/>
<path d="M6.38167 8.3877H7.78055L8.23959 9.44402V8.3877H9.97857L10.2518 9.15119L10.5167 8.3877H18.3227V8.77153C18.3227 8.77153 18.7331 8.3877 19.4075 8.3877L21.9403 8.39655L22.3914 9.43903V8.3877H23.8466L24.2471 8.98654V8.3877H25.7157V11.7754H24.2471L23.8633 11.1747V11.7754H21.7253L21.5102 11.2414H20.9355L20.7239 11.7754H19.274C18.6937 11.7754 18.3227 11.3995 18.3227 11.3995V11.7754H16.1366L15.7027 11.2414V11.7754H7.57331L7.35844 11.2414H6.7855L6.57216 11.7754H4.92383L6.38167 8.3877V8.3877" fill="white"/>
<path fill-rule="evenodd" clip-rule="evenodd" d="M5.57617 11.3423L6.66717 8.80566H7.4943L8.58427 11.3423H7.85831L7.65805 10.8344H6.48777L6.28647 11.3423H5.57617V11.3423M7.42737 10.2836L7.07065 9.39596L6.71289 10.2836H7.42737V10.2836" fill="#016FD0"/>
<path d="M8.66016 11.3413V8.80469L9.66951 8.80844L10.2566 10.4439L10.8296 8.80469H11.831V11.3413H11.1968V9.47225L10.5246 11.3413H9.96841L9.29432 9.47225V11.3413H8.66016V11.3413" fill="#016FD0"/>
<path d="M12.2637 11.3413V8.80469H14.333V9.37209H12.9045V9.80603H14.2996V10.34H12.9045V10.7906H14.333V11.3413H12.2637V11.3413" fill="#016FD0"/>
<path fill-rule="evenodd" clip-rule="evenodd" d="M14.7012 11.3423V8.80566H16.1124C16.58 8.80566 16.9989 9.09482 16.9989 9.62858C16.9989 10.0849 16.6457 10.3789 16.3033 10.4077L17.1376 11.3423H16.3627L15.6023 10.4412H15.3353V11.3423H14.7012V11.3423M16.06 9.37289H15.3351V9.90689H16.0694C16.1966 9.90689 16.3605 9.80839 16.3605 9.63984C16.3605 9.50885 16.2339 9.37289 16.06 9.37289V9.37289" fill="#016FD0"/>
<path d="M17.9053 11.3413H17.2578V8.80469H17.9053V11.3413V11.3413" fill="#016FD0"/>
<path d="M19.4395 11.3413H19.2997C18.6235 11.3413 18.2129 10.8086 18.2129 10.0834C18.2129 9.34043 18.6189 8.80469 19.4729 8.80469H20.1738V9.40551H19.4472C19.1005 9.40551 18.8554 9.67597 18.8554 10.0897C18.8554 10.581 19.1357 10.7873 19.5396 10.7873H19.7065L19.4395 11.3413V11.3413" fill="#016FD0"/>
<path fill-rule="evenodd" clip-rule="evenodd" d="M19.7285 11.3423L20.8195 8.80566H21.6466L22.7365 11.3423H22.0106L21.8103 10.8344H20.6401L20.4388 11.3423H19.7285V11.3423M21.5799 10.2836L21.2233 9.39596L20.8655 10.2836H21.5799V10.2836" fill="#016FD0"/>
<path d="M22.8105 11.3413V8.80469H23.6168L24.6463 10.3985V8.80469H25.2804V11.3413H24.5002L23.4447 9.70588V11.3413H22.8105V11.3413" fill="#016FD0"/>
<path d="M10.1934 15.7808V13.2441H12.2627V13.8115H10.8343V14.2454H12.2294V14.7794H10.8343V15.23H12.2627V15.7808H10.1934V15.7808" fill="#016FD0"/>
<path d="M20.334 15.7808V13.2441H22.4034V13.8115H20.9749V14.2454H22.3634V14.7794H20.9749V15.23H22.4034V15.7808H20.334V15.7808" fill="#016FD0"/>
<path d="M12.3443 15.7808L13.3519 14.528L12.3203 13.2441H13.1193L13.7336 14.0378L14.3501 13.2441H15.1178L14.0997 14.5124L15.1092 15.7808H14.3104L13.7138 14.9996L13.1318 15.7808H12.3443V15.7808" fill="#016FD0"/>
<path fill-rule="evenodd" clip-rule="evenodd" d="M15.1855 15.7808V13.2441H16.5863C17.1611 13.2441 17.4968 13.6146 17.4968 14.0973C17.4968 14.6801 17.0687 14.9798 16.5039 14.9798H15.8364V15.7808H15.1855V15.7808M16.5391 13.8177H15.8361V14.4019H16.537C16.7223 14.4019 16.8521 14.2791 16.8521 14.1098C16.8521 13.9295 16.7216 13.8177 16.5391 13.8177V13.8177" fill="#016FD0"/>
<path fill-rule="evenodd" clip-rule="evenodd" d="M17.7715 15.7808V13.2441H19.1827C19.6503 13.2441 20.0693 13.5332 20.0693 14.0671C20.0693 14.5233 19.716 14.8172 19.3736 14.8462L20.208 15.7808H19.433L18.6727 14.8796H18.4056V15.7808H17.7715V15.7808M19.1306 13.8115H18.4057V14.3456H19.14C19.2671 14.3456 19.4311 14.2471 19.4311 14.0785C19.4311 13.9475 19.3045 13.8115 19.1306 13.8115V13.8115" fill="#016FD0"/>
<path d="M22.6978 15.7808V15.23H23.9669C24.1547 15.23 24.236 15.1285 24.236 15.0173C24.236 14.9106 24.1549 14.8028 23.9669 14.8028H23.3934C22.8948 14.8028 22.6172 14.4991 22.6172 14.0431C22.6172 13.6364 22.8715 13.2441 23.6123 13.2441H24.8472L24.5802 13.8149H23.5121C23.3079 13.8149 23.2451 13.922 23.2451 14.0243C23.2451 14.1295 23.3228 14.2454 23.4788 14.2454H24.0795C24.6352 14.2454 24.8764 14.5606 24.8764 14.9734C24.8764 15.4172 24.6077 15.7808 24.0492 15.7808H22.6978V15.7808" fill="#016FD0"/>
<path d="M25.0258 15.7808V15.23H26.2949C26.4828 15.23 26.5641 15.1285 26.5641 15.0173C26.5641 14.9106 26.4831 14.8028 26.2949 14.8028H25.7214C25.223 14.8028 24.9453 14.4991 24.9453 14.0431C24.9453 13.6364 25.1995 13.2441 25.9404 13.2441H27.1753L26.9083 13.8149H25.8402C25.6361 13.8149 25.5732 13.922 25.5732 14.0243C25.5732 14.1295 25.6509 14.2454 25.8068 14.2454H26.4077C26.9633 14.2454 27.2045 14.5606 27.2045 14.9734C27.2045 15.4172 26.9358 15.7808 26.3774 15.7808H25.0258V15.7808" fill="#016FD0"/>
</g>
<defs>
<clipPath id="clip0_167_102">
<rect width="32" height="24" fill="white"/>
</clipPath>
</defs>
</svg>
