<svg width="32" height="24" viewBox="0 0 32 24" fill="none" xmlns="http://www.w3.org/2000/svg">
<g clip-path="url(#clip0_167_84)">
<path d="M3.712 0.5H28.288C30.0493 0.5 31.5 1.95884 31.5 3.78681V20.2132C31.5 22.0411 30.0493 23.5 28.288 23.5H3.712C1.95064 23.5 0.5 22.0411 0.5 20.2132V3.78681C0.5 1.95884 1.95064 0.5 3.712 0.5V0.5" fill="white"/>
<path d="M3.712 0.5H28.288C30.0493 0.5 31.5 1.95884 31.5 3.78681V20.2132C31.5 22.0411 30.0493 23.5 28.288 23.5H3.712C1.95064 23.5 0.5 22.0411 0.5 20.2132V3.78681C0.5 1.95884 1.95064 0.5 3.712 0.5V0.5" stroke="#EEEEEE"/>
<path fill-rule="evenodd" clip-rule="evenodd" d="M6 13.1748C6 12.6519 6.41907 12.228 6.93461 12.228H9.78092L8.36308 13.6573H14.0345L16.8702 10.3223H23.0142L18.9156 14.8671C18.569 15.2515 17.8792 15.563 17.3644 15.563H6.9236C6.41351 15.563 6 15.1407 6 14.6163V13.1748V13.1748" fill="#00549D"/>
<path fill-rule="evenodd" clip-rule="evenodd" d="M25.7915 10.8693C25.7915 11.3896 25.3681 11.8114 24.8686 11.8114H21.538L22.9558 10.3821H16.8118L14.4487 13.7171H8.30469L12.4323 8.72408C12.7629 8.32418 13.4555 8 13.9692 8H24.8532C25.3714 8 25.7915 8.42245 25.7915 8.94215V10.8693V10.8693" fill="#FFD800"/>
</g>
<defs>
<clipPath id="clip0_167_84">
<rect width="32" height="24" fill="white"/>
</clipPath>
</defs>
</svg>
