<svg width="32" height="24" viewBox="0 0 32 24" fill="none" xmlns="http://www.w3.org/2000/svg">
<g clip-path="url(#clip0_167_123)">
<path d="M4.12903 0.5H27.871C29.8701 0.5 31.5 2.13976 31.5 4.17391V19.8261C31.5 21.8602 29.8701 23.5 27.871 23.5H4.12903C2.12986 23.5 0.5 21.8602 0.5 19.8261V4.17391C0.5 2.13976 2.12986 0.5 4.12903 0.5V0.5" fill="white"/>
<path d="M4.12903 0.5H27.871C29.8701 0.5 31.5 2.13976 31.5 4.17391V19.8261C31.5 21.8602 29.8701 23.5 27.871 23.5H4.12903C2.12986 23.5 0.5 21.8602 0.5 19.8261V4.17391C0.5 2.13976 2.12986 0.5 4.12903 0.5V0.5" stroke="#EEEEEE"/>
<path d="M12.9034 17.217C15.7539 17.217 18.0647 14.8811 18.0647 11.9996C18.0647 9.11814 15.7539 6.78223 12.9034 6.78223C10.0529 6.78223 7.74219 9.11814 7.74219 11.9996C7.74219 14.8811 10.0529 17.217 12.9034 17.217V17.217" fill="#E7001A"/>
<path d="M19.0968 17.217C21.9473 17.217 24.2581 14.8811 24.2581 11.9996C24.2581 9.11814 21.9473 6.78223 19.0968 6.78223C16.2463 6.78223 13.9355 9.11814 13.9355 11.9996C13.9355 14.8811 16.2463 17.217 19.0968 17.217V17.217" fill="#00A2E1"/>
<path opacity="0.3" fill-rule="evenodd" clip-rule="evenodd" d="M16 7.8252C17.2536 8.77707 18.0645 10.2925 18.0645 11.9995C18.0645 13.7064 17.2536 15.2219 16 16.1738C14.7464 15.2219 13.9355 13.7064 13.9355 11.9995C13.9355 10.2925 14.7464 8.77707 16 7.8252V7.8252" fill="#E7001A"/>
</g>
<defs>
<clipPath id="clip0_167_123">
<rect width="32" height="24" fill="white"/>
</clipPath>
</defs>
</svg>
