<svg width="32" height="24" viewBox="0 0 32 24" fill="none" xmlns="http://www.w3.org/2000/svg">
<g clip-path="url(#clip0_167_97)">
<path d="M4.68841 1.00293H27.311C29.2159 1.00293 30.7689 2.58236 30.7689 4.54167V19.618C30.7689 21.5773 29.2159 23.1567 27.311 23.1567H4.68841C2.78349 23.1567 1.23047 21.5773 1.23047 19.618V4.54167C1.23047 2.58236 2.78349 1.00293 4.68841 1.00293V1.00293" fill="white"/>
<path d="M4.68841 1.00293H27.311C29.2159 1.00293 30.7689 2.58236 30.7689 4.54167V19.618C30.7689 21.5773 29.2159 23.1567 27.311 23.1567H4.68841C2.78349 23.1567 1.23047 21.5773 1.23047 19.618V4.54167C1.23047 2.58236 2.78349 1.00293 4.68841 1.00293V1.00293" stroke="#EEEEEE" stroke-width="0.923077"/>
<path fill-rule="evenodd" clip-rule="evenodd" d="M16.2845 11.0011C16.275 11.7726 16.9505 12.2031 17.4595 12.4591C17.9823 12.7217 18.158 12.8902 18.156 13.125C18.152 13.4845 17.7389 13.6431 17.3522 13.6493C16.6958 13.6599 16.3069 13.4719 15.9991 13.3232L15.9736 13.3109L15.7307 14.4846C16.0435 14.6335 16.6227 14.7633 17.2235 14.7689C18.6335 14.7689 19.556 14.0505 19.561 12.9365C19.5642 12.0908 18.8856 11.723 18.3425 11.4287C17.9778 11.231 17.6743 11.0665 17.6795 10.8126C17.684 10.621 17.8611 10.4165 18.2493 10.3646C18.4414 10.3383 18.9717 10.3181 19.573 10.604L19.8089 9.46844C19.4857 9.34687 19.07 9.23047 18.5526 9.23047C17.2255 9.23047 16.292 9.95868 16.2845 11.0011V11.0011M22.0765 9.32831C21.8191 9.32831 21.6021 9.4833 21.5053 9.72127L19.4911 14.6855H20.9001L21.1805 13.8856H22.9023L23.065 14.6855H24.3068L23.2231 9.32831H22.0765V9.32831M22.6802 12.7872L22.2736 10.7755L21.5666 12.7872H22.6802V12.7872M14.5762 9.32831L13.4655 14.6855H14.8081L15.9182 9.32831H14.5762V9.32831M11.1924 12.9747L12.5899 9.32831H13.9999L11.8246 14.6855H10.4056L9.33488 10.4103C9.27002 10.1472 9.21364 10.0503 9.01607 9.93967C8.69326 9.75838 8.1604 9.5889 7.69141 9.48385L7.72334 9.32831H10.008C10.2988 9.32831 10.5608 9.52816 10.6272 9.87422L11.1924 12.9747V12.9747" fill="#27337A"/>
</g>
<defs>
<clipPath id="clip0_167_97">
<rect width="32" height="24" fill="white"/>
</clipPath>
</defs>
</svg>
