<svg width="20" height="20" viewBox="0 0 20 20" fill="none" xmlns="http://www.w3.org/2000/svg">
<g clip-path="url(#clip0_28_1851)">
<path fill-rule="evenodd" clip-rule="evenodd" d="M10 0V0C15.5192 0 20 4.48085 20 10V10C20 15.5192 15.5192 20 10 20V20C4.48085 20 0 15.5192 0 10V10C0 4.48085 4.48085 0 10 0V0" fill="#051D7F"/>
<mask id="mask0_28_1851" style="mask-type:luminance" maskUnits="userSpaceOnUse" x="0" y="0" width="20" height="20">
<path d="M10 0V0C15.5192 0 20 4.48085 20 10V10C20 15.5192 15.5192 20 10 20V20C4.48085 20 0 15.5192 0 10V10C0 4.48085 4.48085 0 10 0V0" fill="white"/>
</mask>
<g mask="url(#mask0_28_1851)">
<path fill-rule="evenodd" clip-rule="evenodd" d="M0 5.83301L10 8.33301L20 5.83301V14.167L10 11.667L0 14.167V5.83301" fill="white"/>
</g>
<mask id="mask1_28_1851" style="mask-type:luminance" maskUnits="userSpaceOnUse" x="0" y="0" width="20" height="20">
<path d="M10 0V0C15.5192 0 20 4.48085 20 10V10C20 15.5192 15.5192 20 10 20V20C4.48085 20 0 15.5192 0 10V10C0 4.48085 4.48085 0 10 0V0" fill="white"/>
</mask>
<g mask="url(#mask1_28_1851)">
<path d="M20 15.833L0 4.16699M0 15.833L20 4.16699" stroke="white" stroke-width="3.333"/>
</g>
<mask id="mask2_28_1851" style="mask-type:luminance" maskUnits="userSpaceOnUse" x="0" y="0" width="20" height="20">
<path d="M10 0V0C15.5192 0 20 4.48085 20 10V10C20 15.5192 15.5192 20 10 20V20C4.48085 20 0 15.5192 0 10V10C0 4.48085 4.48085 0 10 0V0" fill="white"/>
</mask>
<g mask="url(#mask2_28_1851)">
<path d="M20 15.833L0 4.16699M0 15.833L20 4.16699" stroke="#D01628" stroke-width="1.25"/>
</g>
<mask id="mask3_28_1851" style="mask-type:luminance" maskUnits="userSpaceOnUse" x="0" y="0" width="20" height="20">
<path d="M10 0V0C15.5192 0 20 4.48085 20 10V10C20 15.5192 15.5192 20 10 20V20C4.48085 20 0 15.5192 0 10V10C0 4.48085 4.48085 0 10 0V0" fill="white"/>
</mask>
<g mask="url(#mask3_28_1851)">
<path fill-rule="evenodd" clip-rule="evenodd" d="M0 6.66699H20V13.334H0V6.66699" fill="white"/>
</g>
<mask id="mask4_28_1851" style="mask-type:luminance" maskUnits="userSpaceOnUse" x="0" y="0" width="20" height="20">
<path d="M10 0V0C15.5192 0 20 4.48085 20 10V10C20 15.5192 15.5192 20 10 20V20C4.48085 20 0 15.5192 0 10V10C0 4.48085 4.48085 0 10 0V0" fill="white"/>
</mask>
<g mask="url(#mask4_28_1851)">
<path fill-rule="evenodd" clip-rule="evenodd" d="M6.66699 0H13.333V20H6.66699V0" fill="white"/>
</g>
<mask id="mask5_28_1851" style="mask-type:luminance" maskUnits="userSpaceOnUse" x="0" y="0" width="20" height="20">
<path d="M10 0V0C15.5192 0 20 4.48085 20 10V10C20 15.5192 15.5192 20 10 20V20C4.48085 20 0 15.5192 0 10V10C0 4.48085 4.48085 0 10 0V0" fill="white"/>
</mask>
<g mask="url(#mask5_28_1851)">
<path fill-rule="evenodd" clip-rule="evenodd" d="M0 8.33301H20V11.666H0V8.33301" fill="#D01628"/>
</g>
<mask id="mask6_28_1851" style="mask-type:luminance" maskUnits="userSpaceOnUse" x="0" y="0" width="20" height="20">
<path d="M10 0V0C15.5192 0 20 4.48085 20 10V10C20 15.5192 15.5192 20 10 20V20C4.48085 20 0 15.5192 0 10V10C0 4.48085 4.48085 0 10 0V0" fill="white"/>
</mask>
<g mask="url(#mask6_28_1851)">
<path fill-rule="evenodd" clip-rule="evenodd" d="M8.33301 0H11.666V20H8.33301V0" fill="#D01628"/>
</g>
<path d="M0.25 10C0.25 15.3812 4.61883 19.75 10 19.75C15.3812 19.75 19.75 15.3812 19.75 10C19.75 4.61883 15.3812 0.25 10 0.25C4.61883 0.25 0.25 4.61883 0.25 10V10" stroke="black" stroke-opacity="0.2" stroke-width="0.5"/>
</g>
<defs>
<clipPath id="clip0_28_1851">
<rect width="20" height="20" fill="white"/>
</clipPath>
</defs>
</svg>
