<svg width="118" height="23" viewBox="0 0 118 23" fill="none" xmlns="http://www.w3.org/2000/svg">
<path d="M20.1 18.54C19.28 19.6 18.38 20.44 17.4 21.06C16.44 21.68 15.43 22.12 14.37 22.38C13.31 22.66 12.25 22.8 11.19 22.8C9.64998 22.8 8.19998 22.56 6.83998 22.08C5.49998 21.58 4.30998 20.86 3.26998 19.92C2.24998 18.96 1.44998 17.8 0.869976 16.44C0.289976 15.08 -2.43783e-05 13.53 -2.43783e-05 11.79C-2.43783e-05 10.05 0.269976 8.49998 0.809976 7.13997C1.34998 5.75997 2.12998 4.58997 3.14998 3.62998C4.16998 2.64997 5.40998 1.90997 6.86998 1.40998C8.32998 0.909974 9.98998 0.659974 11.85 0.659974C12.95 0.659974 14.02 0.769974 15.06 0.989975C16.12 1.18998 17.09 1.43997 17.97 1.73997C18.85 2.01997 19.57 2.28997 20.13 2.54997L18.33 11.43H17.73L15.84 6.95998C15.28 5.63997 14.7 4.53997 14.1 3.65997C13.52 2.77997 12.91 2.11997 12.27 1.67998C11.65 1.23997 11 1.01997 10.32 1.01997C9.83998 1.01997 9.40998 1.25997 9.02998 1.73997C8.64998 2.19997 8.32998 2.82997 8.06998 3.62998C7.80998 4.42997 7.60998 5.33997 7.46998 6.35997C7.32998 7.35997 7.25998 8.40998 7.25998 9.50997C7.25998 10.75 7.40998 11.97 7.70998 13.17C8.00998 14.35 8.48998 15.43 9.14998 16.41C9.82998 17.37 10.7 18.14 11.76 18.72C12.84 19.28 14.14 19.56 15.66 19.56C16.4 19.56 17.12 19.47 17.82 19.29C18.52 19.09 19.18 18.77 19.8 18.33L20.1 18.54ZM29.8933 21.75L31.3933 22.05V22.35H21.3433V22.05L22.8433 21.75V1.52998H21.3433V1.19997L29.8933 -2.63453e-05V21.75ZM41.1874 6.89997C42.6274 6.89997 43.8974 7.09997 44.9974 7.49997C46.0974 7.89997 47.0174 8.46997 47.7574 9.20997C48.4974 9.92998 49.0574 10.78 49.4374 11.76C49.8174 12.74 50.0074 13.81 50.0074 14.97C50.0074 15.99 49.8174 16.97 49.4374 17.91C49.0774 18.83 48.5274 19.66 47.7874 20.4C47.0474 21.14 46.1274 21.73 45.0274 22.17C43.9274 22.59 42.6474 22.8 41.1874 22.8C39.6674 22.8 38.3474 22.59 37.2274 22.17C36.1074 21.73 35.1774 21.14 34.4374 20.4C33.7174 19.66 33.1774 18.83 32.8174 17.91C32.4774 16.97 32.3074 15.99 32.3074 14.97C32.3074 13.81 32.5074 12.74 32.9074 11.76C33.3274 10.78 33.9174 9.92998 34.6774 9.20997C35.4374 8.46997 36.3674 7.89997 37.4674 7.49997C38.5674 7.09997 39.8074 6.89997 41.1874 6.89997ZM41.1874 7.19998C40.7074 7.19998 40.3474 7.56998 40.1074 8.30997C39.8674 9.04997 39.7074 10.01 39.6274 11.19C39.5474 12.37 39.5074 13.63 39.5074 14.97C39.5074 15.89 39.5174 16.8 39.5374 17.7C39.5774 18.6 39.6474 19.41 39.7474 20.13C39.8674 20.85 40.0374 21.43 40.2574 21.87C40.4974 22.29 40.8074 22.5 41.1874 22.5C41.5274 22.5 41.7974 22.29 41.9974 21.87C42.2174 21.45 42.3874 20.88 42.5074 20.16C42.6274 19.44 42.7074 18.63 42.7474 17.73C42.7874 16.83 42.8074 15.91 42.8074 14.97C42.8074 13.97 42.7874 13.01 42.7474 12.09C42.7274 11.15 42.6674 10.32 42.5674 9.59998C42.4674 8.85998 42.3074 8.27998 42.0874 7.85998C41.8674 7.41998 41.5674 7.19998 41.1874 7.19998ZM57.5039 22.8C55.6839 22.8 54.3739 22.31 53.5739 21.33C52.7939 20.33 52.4039 18.86 52.4039 16.92V7.94998H50.6039V7.64998L52.4039 7.34998L58.8539 2.42997H59.4539V6.89997L62.1539 7.64998V7.94998H59.4539V19.35C59.4539 20.09 59.5739 20.63 59.8139 20.97C60.0739 21.29 60.3839 21.45 60.7439 21.45C60.9439 21.45 61.1439 21.41 61.3439 21.33C61.5439 21.25 61.7439 21.14 61.9439 21V21.6C61.6639 21.78 61.3539 21.95 61.0139 22.11C60.6739 22.25 60.3139 22.37 59.9339 22.47C59.5739 22.59 59.1839 22.67 58.7639 22.71C58.3639 22.77 57.9439 22.8 57.5039 22.8ZM83.1398 22.05V22.35H73.3898V22.05L74.5898 21.75V11.1C74.5898 10.48 74.4998 9.99998 74.3198 9.65998C74.1398 9.31997 73.9298 9.14997 73.6898 9.14997C73.4098 9.14997 73.1298 9.34997 72.8498 9.74998C72.5898 10.15 72.3498 10.63 72.1298 11.19C71.9098 11.73 71.7198 12.24 71.5598 12.72C71.4198 13.18 71.3298 13.49 71.2898 13.65V21.75L72.4898 22.05V22.35H62.7398V22.05L64.2398 21.75V1.52998H62.7398V1.19997L71.2898 -2.63453e-05V11.79L71.5298 12.03C71.8698 11.07 72.2798 10.2 72.7598 9.41997C73.2398 8.63997 73.8198 8.02997 74.4998 7.58998C75.1998 7.12997 76.0498 6.89997 77.0498 6.89997C77.9698 6.89997 78.7298 7.03997 79.3298 7.31997C79.9298 7.59997 80.3898 7.98998 80.7098 8.48998C81.0498 8.96997 81.2898 9.52997 81.4298 10.17C81.5698 10.79 81.6398 11.45 81.6398 12.15V21.75L83.1398 22.05ZM92.8957 6.89997C94.7557 6.89997 96.2657 7.25997 97.4257 7.97997C98.6057 8.69997 99.4757 9.62998 100.036 10.77C100.596 11.89 100.876 13.09 100.876 14.37H91.0957V14.07L94.3657 13.47C94.3657 12.11 94.3357 10.97 94.2757 10.05C94.2357 9.10997 94.1057 8.39997 93.8857 7.91997C93.6857 7.43998 93.3457 7.19998 92.8657 7.19998C92.4657 7.19998 92.1457 7.40998 91.9057 7.82997C91.6657 8.24997 91.4857 8.95997 91.3657 9.95998C91.2657 10.94 91.2157 12.31 91.2157 14.07C91.2157 14.81 91.2957 15.57 91.4557 16.35C91.6157 17.13 91.8657 17.86 92.2057 18.54C92.5457 19.2 92.9857 19.74 93.5257 20.16C94.0857 20.56 94.7557 20.76 95.5357 20.76C95.8957 20.76 96.2857 20.69 96.7057 20.55C97.1457 20.41 97.5657 20.2 97.9657 19.92C98.3857 19.64 98.7657 19.31 99.1057 18.93C99.4457 18.55 99.7157 18.12 99.9157 17.64L100.336 17.91C99.7957 19.03 99.1857 19.92 98.5057 20.58C97.8257 21.22 97.1157 21.7 96.3757 22.02C95.6357 22.34 94.9157 22.55 94.2157 22.65C93.5357 22.75 92.9157 22.8 92.3557 22.8C90.9757 22.8 89.7657 22.58 88.7257 22.14C87.6857 21.68 86.8157 21.08 86.1157 20.34C85.4357 19.6 84.9157 18.78 84.5557 17.88C84.2157 16.96 84.0457 16.05 84.0457 15.15C84.0457 13.85 84.2657 12.69 84.7057 11.67C85.1457 10.65 85.7557 9.78998 86.5357 9.08997C87.3357 8.36997 88.2757 7.82998 89.3557 7.46997C90.4357 7.08997 91.6157 6.89997 92.8957 6.89997ZM109.473 22.8C108.533 22.8 107.623 22.71 106.743 22.53C105.863 22.37 105.063 22.13 104.343 21.81C103.643 21.47 103.083 21.06 102.663 20.58C102.263 20.1 102.063 19.55 102.063 18.93C102.063 18.37 102.233 17.92 102.573 17.58C102.913 17.24 103.343 16.99 103.863 16.83C104.403 16.65 104.953 16.56 105.513 16.56C106.113 16.56 106.663 16.65 107.163 16.83C107.663 16.99 108.063 17.24 108.363 17.58C108.683 17.92 108.843 18.33 108.843 18.81C108.843 19.13 108.793 19.42 108.693 19.68C108.593 19.94 108.413 20.23 108.153 20.55C107.893 20.83 107.713 21.07 107.613 21.27C107.513 21.45 107.463 21.64 107.463 21.84C107.463 21.94 107.513 22.05 107.613 22.17C107.713 22.29 107.883 22.38 108.123 22.44C108.363 22.52 108.693 22.56 109.113 22.56C109.673 22.56 110.203 22.49 110.703 22.35C111.223 22.23 111.643 22.02 111.963 21.72C112.283 21.42 112.443 21.01 112.443 20.49C112.443 20.01 112.303 19.57 112.023 19.17C111.743 18.77 111.273 18.38 110.613 18C109.953 17.6 109.053 17.17 107.913 16.71C106.493 16.11 105.363 15.53 104.523 14.97C103.703 14.41 103.113 13.83 102.753 13.23C102.413 12.63 102.243 11.99 102.243 11.31C102.243 9.94997 102.943 8.87997 104.343 8.09997C105.743 7.29997 107.623 6.89997 109.983 6.89997C111.283 6.89997 112.483 7.04997 113.583 7.34998C114.703 7.64998 115.603 8.06997 116.283 8.60997C116.963 9.14997 117.303 9.79998 117.303 10.56C117.303 11.06 117.143 11.48 116.823 11.82C116.523 12.16 116.123 12.42 115.623 12.6C115.143 12.76 114.633 12.84 114.093 12.84C113.653 12.84 113.223 12.79 112.803 12.69C112.383 12.59 112.003 12.45 111.663 12.27C111.323 12.07 111.043 11.83 110.823 11.55C110.623 11.25 110.523 10.91 110.523 10.53C110.523 9.90998 110.813 9.32998 111.393 8.78997C111.713 8.48998 111.933 8.24998 112.053 8.06998C112.173 7.88998 112.233 7.72998 112.233 7.58998C112.233 7.52997 112.203 7.46997 112.143 7.40997C112.083 7.34997 111.983 7.29997 111.843 7.25997C111.703 7.21998 111.513 7.18998 111.273 7.16997C111.053 7.14997 110.773 7.13997 110.433 7.13997C109.873 7.13997 109.323 7.19997 108.783 7.31997C108.243 7.41997 107.793 7.59998 107.433 7.85998C107.093 8.09998 106.923 8.44998 106.923 8.90998C106.923 9.40998 107.143 9.86998 107.583 10.29C108.023 10.71 108.593 11.11 109.293 11.49C109.993 11.85 110.743 12.21 111.543 12.57C113.063 13.25 114.263 13.86 115.143 14.4C116.023 14.94 116.653 15.47 117.033 15.99C117.413 16.51 117.603 17.07 117.603 17.67C117.603 18.55 117.363 19.31 116.883 19.95C116.423 20.59 115.803 21.12 115.023 21.54C114.243 21.96 113.373 22.27 112.413 22.47C111.453 22.69 110.473 22.8 109.473 22.8Z" fill="black"/>
</svg>
