<svg width="102" height="24" viewBox="0 0 102 24" fill="none" xmlns="http://www.w3.org/2000/svg">
<g clip-path="url(#clip0_20_121)">
<mask id="mask0_20_121" style="mask-type:luminance" maskUnits="userSpaceOnUse" x="0" y="0" width="102" height="24">
<path d="M0 0H102V24H0V0V0" fill="white"/>
</mask>
<g mask="url(#mask0_20_121)">
<path d="M32.604 9.12497L33.1907 7.90589H29.8542V1.58716H29.415L21.7905 8.58936V9.12346H23.8851V18.4884C23.8851 21.0925 25.4142 23.8852 28.8282 23.8852C31.2511 23.8852 32.4763 22.4368 32.9977 21.5587L32.7712 21.3279C32.3915 21.5289 31.9672 21.6326 31.5369 21.6296C30.6857 21.6296 29.8542 20.8164 29.8542 19.4615V9.12497H32.604V9.12497" fill="black"/>
<path d="M52.3276 0C51.4597 0.000357061 50.6271 0.340645 50.0106 0.946917C49.3941 1.55319 49.0436 2.37646 49.0352 3.23782C49.0352 5.53115 51.4384 7.28736 53.8704 6.14974C54.4877 5.86131 54.9794 5.36147 55.2551 4.74206C56.3405 2.31445 54.6259 0 52.3276 0V0" fill="black"/>
<path d="M48.9121 7.90601C48.9121 7.90601 49.7421 8.75093 49.7421 10.9236V23.5656H55.4331V7.90601H48.9121V7.90601" fill="black"/>
<path d="M45.2315 7.43677C41.6564 7.43677 40.5346 11.34 40.5346 11.34V7.90599H34.2021C34.2021 7.90599 35.0321 8.75091 35.0321 10.9235V23.5655H40.7216V13.8068C40.6702 12.8388 40.9433 11.8811 41.4983 11.0835C41.9665 10.3623 42.9499 10.495 43.108 11.1695C43.3223 12.1155 43.9942 13.0388 45.4504 13.0539C47.2531 13.0735 48.3688 11.7156 48.2731 10.1314C48.1697 8.57891 46.8913 7.43677 45.2315 7.43677V7.43677" fill="black"/>
<path d="M67.133 7.90594C67.133 7.90594 67.9629 8.75085 67.9629 10.9235V19.9761C67.9629 19.9761 66.9111 21.6735 65.464 21.6735C64.6022 21.6735 63.6704 20.8059 63.6704 18.7193V7.90594H57.1069C57.1069 7.90594 57.9368 8.75085 57.9368 10.9235V19.273C57.9368 21.0156 58.1238 21.9164 58.6254 22.6014C59.2517 23.4402 60.5376 24 61.8524 24C63.1064 24 64.5794 23.5338 65.8045 22.7251C66.3715 22.3705 67.8185 21.331 67.9538 21.2344C67.9189 22.8941 67.9645 23.5655 67.9645 23.5655H73.6585L73.6995 7.8999H67.133V7.90594V7.90594" fill="black"/>
<path d="M101.316 8.8354C100.69 7.99652 99.4038 7.43677 98.0874 7.43677C94.4103 7.43677 91.9614 10.231 91.9614 10.231C91.8852 9.74276 91.6975 9.27829 91.4126 8.87312C90.7879 8.03424 89.5095 7.48656 88.1991 7.47449C84.5509 7.43979 82.6128 9.49624 82.1005 10.2416C82.1355 8.58192 82.0914 7.91052 82.0914 7.91052H75.5747C75.5747 7.91052 76.3424 8.69508 76.3971 10.7017L76.3546 23.5821L82.0884 23.5746V11.5044C82.0884 11.5044 83.1403 9.80704 84.5859 9.80704C85.4493 9.80704 86.3811 10.6761 86.3811 12.7627V23.5806H92.1149L92.1012 11.3158C92.4174 10.8798 93.3173 9.79799 94.4756 9.79799C95.339 9.79799 96.2709 10.667 96.2709 12.7522V23.5806L101.964 23.5731L101.998 12.1637C101.998 10.4226 101.818 9.52038 101.316 8.8354V8.8354" fill="black"/>
<path d="M10.7457 2.5542C8.62005 2.5542 6.54221 3.17981 4.77486 4.35192C3.00751 5.52402 1.63003 7.18998 0.816613 9.13912C0.00319153 11.0883 -0.209636 13.2331 0.205042 15.3023C0.61972 17.3714 1.64328 19.2721 3.14629 20.7639C4.64929 22.2557 6.56424 23.2717 8.64897 23.6833C10.7337 24.0949 12.8946 23.8836 14.8584 23.0763C16.8222 22.2689 18.5006 20.9017 19.6815 19.1475C20.8624 17.3933 21.4927 15.331 21.4927 13.2212C21.4927 10.3922 20.3605 7.67895 18.345 5.67849C16.3295 3.67804 13.596 2.5542 10.7457 2.5542V2.5542V2.5542M16.1967 10.4209C15.9429 11.4771 15.2071 13.5094 14.6021 14.8884C13.3769 17.6977 12.1183 19.7346 10.8764 20.9854C9.81228 22.0219 8.39251 22.8698 6.79489 22.221C4.97077 21.4817 4.89173 19.896 4.93429 18.4204C4.99813 16.6914 5.6533 14.3664 6.88457 11.5586C8.11585 8.75072 9.37905 6.68823 10.6104 5.4616C11.6744 4.42357 13.0212 3.50925 14.6675 4.17764C16.8625 5.06781 16.9674 7.35511 16.1967 10.4209V10.4209" fill="black"/>
</g>
</g>
<defs>
<clipPath id="clip0_20_121">
<rect width="102" height="24" fill="white"/>
</clipPath>
</defs>
</svg>
