<svg width="119" height="23" viewBox="0 0 119 23" fill="none" xmlns="http://www.w3.org/2000/svg">
<path d="M12.032 0.128023H13.824C14.6987 0.192024 15.5093 0.373357 16.256 0.672024C17.088 0.949357 17.888 1.37602 18.656 1.95202C18.848 2.10136 18.944 2.15469 18.944 2.11202C18.9653 2.11202 19.36 1.79202 20.128 1.15202C20.9813 0.469357 21.3973 0.13869 21.376 0.160023C21.5467 0.0533562 21.856 0.0533562 22.304 0.160023C22.4107 0.224023 22.4747 0.33069 22.496 0.480022C22.5173 0.693357 22.528 2.08002 22.528 4.64002C22.528 7.47736 22.496 8.93869 22.432 9.02402L22.304 9.08802C22.2187 9.13069 21.8773 9.15202 21.28 9.15202C20.6827 9.15202 20.3413 9.13069 20.256 9.08802C20.1067 8.98136 20.0213 8.82136 20 8.60802C19.8293 7.02936 19.264 5.66402 18.304 4.51202C17.8773 4.04269 17.472 3.66936 17.088 3.39202C16.4053 2.90136 15.6907 2.60269 14.944 2.49602C14.0053 2.30402 12.8533 2.35736 11.488 2.65602C10.1227 2.93336 9.02399 3.42402 8.19199 4.12802C7.70133 4.51202 7.33866 4.89602 7.10399 5.28002C6.20799 6.58136 5.75999 8.62936 5.75999 11.424C5.75999 14.3467 6.26132 16.4587 7.26399 17.76C7.37066 17.9094 7.49866 18.0587 7.64799 18.208C7.92533 18.4854 8.10666 18.656 8.19199 18.72C9.02399 19.424 10.1227 19.9147 11.488 20.192C12.6827 20.448 13.7387 20.5227 14.656 20.416C16.5973 20.224 18.1013 19.36 19.168 17.824C19.808 16.928 20.16 15.936 20.224 14.848C20.224 14.4854 20.2987 14.2614 20.448 14.176C20.5333 14.1334 20.8427 14.112 21.376 14.112C21.9093 14.112 22.2187 14.1334 22.304 14.176C22.4533 14.2827 22.528 14.528 22.528 14.912C22.464 15.936 22.2293 16.864 21.824 17.696C20.8213 19.7867 19.104 21.2587 16.672 22.112C15.776 22.432 14.8267 22.6347 13.824 22.72C13.1413 22.784 12.2773 22.7734 11.232 22.688C8.54399 22.3894 6.30399 21.6214 4.51199 20.384C2.80532 19.1254 1.58932 17.5574 0.863991 15.68C0.543991 14.8694 0.298658 13.9094 0.127991 12.8C0.0426579 12.032 0.0426579 11.1574 0.127991 10.176C0.127991 10.112 0.127991 10.0587 0.127991 10.016C0.341325 8.30936 0.874658 6.77336 1.72799 5.40802C3.02932 3.29602 5.00266 1.79202 7.64799 0.896023C9.01333 0.469357 10.4747 0.213357 12.032 0.128023ZM28.8657 0.320023C30.9991 0.23469 32.0444 0.192024 32.0017 0.192024H32.1937V10.144V20.096H33.3137H34.4017V21.248V22.4H34.1137L31.9377 22.336C30.6791 22.3147 29.4311 22.3147 28.1937 22.336L26.0177 22.4H25.7297V21.248V20.096H26.8497H27.9377V11.776C27.9377 6.22936 27.9164 3.40269 27.8737 3.29602C27.8097 3.08269 27.6711 2.94402 27.4577 2.88002C27.1591 2.79469 26.7217 2.75202 26.1457 2.75202H25.7297V1.60002V0.448023H25.8257C25.7191 0.448023 26.7324 0.405356 28.8657 0.320023ZM43.3085 7.93602L45.2605 7.96802C48.4178 8.33069 50.5192 9.78136 51.5645 12.32C51.6285 12.4694 51.6925 12.6294 51.7565 12.8C52.0125 13.568 52.1512 14.3574 52.1725 15.168C52.2152 16.8747 51.7885 18.3467 50.8925 19.584C50.4232 20.288 49.7832 20.8747 48.9725 21.344C48.4392 21.7067 47.7032 22.016 46.7645 22.272C45.9965 22.464 45.0792 22.56 44.0125 22.56C42.9458 22.56 42.0285 22.464 41.2605 22.272C40.3218 22.016 39.5858 21.7067 39.0525 21.344C38.2418 20.8747 37.6018 20.288 37.1325 19.584C36.5778 18.7947 36.1938 17.8774 35.9805 16.832C35.5965 14.7627 35.9592 12.8747 37.0685 11.168C37.1965 10.9334 37.3458 10.72 37.5165 10.528C38.7538 9.05602 40.5245 8.20269 42.8285 7.96802C42.9565 7.94669 43.1165 7.93602 43.3085 7.93602ZM44.9725 9.95202C44.4605 9.86669 43.9378 9.84536 43.4045 9.88802C42.5725 10.016 41.9645 10.272 41.5805 10.656C41.1538 11.04 40.8978 11.68 40.8125 12.576C40.7698 13.024 40.7485 13.6854 40.7485 14.56C40.7272 16.8214 40.8338 18.2827 41.0685 18.944C41.3672 19.712 42.0605 20.2134 43.1485 20.448C43.6392 20.5334 44.2152 20.5334 44.8765 20.448C45.5378 20.32 46.0498 20.0747 46.4125 19.712C46.8392 19.3067 47.0952 18.6134 47.1805 17.632C47.2018 17.3974 47.2232 17.1307 47.2445 16.832L47.2125 12.832C47.2125 12.768 47.2125 12.7254 47.2125 12.704C47.1058 11.7227 46.8498 11.04 46.4445 10.656C46.1032 10.3147 45.6125 10.08 44.9725 9.95202ZM58.2587 2.27202V2.08002H59.4107H60.5627V5.12002V8.19202H62.7067H64.8507V9.34402V10.496H62.7067H60.5627V14.848C60.5841 17.856 60.6267 19.456 60.6907 19.648C60.6907 19.6694 60.7227 19.7334 60.7867 19.84C60.9147 20.096 61.1067 20.288 61.3627 20.416C61.4694 20.4587 61.6294 20.48 61.8427 20.48C62.0561 20.48 62.1947 20.4587 62.2587 20.416C62.6001 20.288 62.8667 19.8934 63.0587 19.232C63.1014 19.0827 63.1334 18.624 63.1547 17.856V16.736H64.3067H65.4587V17.76C65.4587 18.656 65.3841 19.3174 65.2347 19.744C65.0001 20.448 64.5841 21.056 63.9867 21.568C63.2827 22.1014 62.5147 22.432 61.6827 22.56C61.4907 22.5814 61.1601 22.592 60.6907 22.592C59.8161 22.5707 59.1014 22.4427 58.5467 22.208C57.8427 21.9734 57.2667 21.5467 56.8187 20.928C56.4774 20.4587 56.2534 19.8507 56.1467 19.104C56.1254 18.9974 56.1147 17.5147 56.1147 14.656V10.496H55.0267H53.9067V9.53602V8.54402H54.1947C54.8774 8.48002 55.4854 8.24536 56.0187 7.84002C57.1067 6.98669 57.8001 5.64269 58.0987 3.80802C58.2054 3.23202 58.2587 2.72002 58.2587 2.27202ZM71.7072 0.320023C73.8406 0.23469 74.8859 0.192024 74.8432 0.192024H75.0352V5.18402V10.208L75.2272 10.016C75.9526 9.29069 76.7952 8.76802 77.7552 8.44802C78.3312 8.25602 78.8219 8.12802 79.2272 8.06402C79.7606 7.97869 80.4966 7.96802 81.4352 8.03202C81.5206 8.05336 81.5952 8.06402 81.6592 8.06402C83.3019 8.25602 84.4112 8.94936 84.9872 10.144C85.1152 10.4 85.2326 10.7947 85.3392 11.328C85.3819 11.5627 85.4139 13.088 85.4352 15.904V20.096H86.5552H87.6432V21.248V22.4H87.3552C87.3766 22.4 86.6406 22.3787 85.1472 22.336C83.8672 22.3147 82.5872 22.3147 81.3072 22.336L79.0672 22.4H78.7792V21.248V20.096H79.8992H80.9872V16.096C80.9872 13.3227 80.9766 11.872 80.9552 11.744C80.8486 10.656 80.3899 10.0587 79.5792 9.95202C79.4299 9.95202 79.2592 9.95202 79.0672 9.95202C78.0432 10.016 77.1686 10.4107 76.4432 11.136C75.9312 11.648 75.5899 12.2134 75.4192 12.832C75.2912 13.1947 75.2272 14.112 75.2272 15.584C75.2272 15.84 75.2272 16.288 75.2272 16.928V20.096H76.3472H77.4352V21.248V22.4H77.1472L74.9072 22.336C73.6272 22.3147 72.3472 22.3147 71.0672 22.336C69.5739 22.3787 68.8379 22.4 68.8592 22.4H68.5712V21.248V20.096H69.6912H70.7792V11.776C70.7792 6.22936 70.7579 3.40269 70.7152 3.29602C70.6512 3.08269 70.5126 2.94402 70.2992 2.88002C70.0006 2.79469 69.5632 2.75202 68.9872 2.75202H68.5712V1.60002V0.448023H68.6672C68.5606 0.448023 69.5739 0.405356 71.7072 0.320023ZM96.1447 7.93602L98.2887 7.96802C99.8034 8.18136 101.019 8.71469 101.937 9.56802C103.003 10.6347 103.611 12.0854 103.761 13.92C103.825 14.7094 103.729 15.1894 103.473 15.36C103.387 15.4027 101.766 15.424 98.6087 15.424H93.9047V16.064C93.9687 17.5574 94.2674 18.6027 94.8007 19.2C94.8434 19.2427 94.8967 19.296 94.9607 19.36C95.5794 19.9787 96.5181 20.352 97.7767 20.48C98.2674 20.5227 98.6727 20.512 98.9927 20.448C100.145 20.2774 100.955 19.7014 101.425 18.72C101.446 18.656 101.467 18.6027 101.489 18.56C101.595 18.2827 101.766 18.1334 102.001 18.112C102.107 18.0907 102.321 18.08 102.641 18.08C103.11 18.08 103.387 18.1014 103.473 18.144C103.729 18.272 103.825 18.496 103.761 18.816C103.633 19.264 103.419 19.68 103.121 20.064C102.161 21.3867 100.657 22.208 98.6087 22.528C98.0114 22.6134 97.2114 22.624 96.2087 22.56C96.1447 22.5387 96.0807 22.528 96.0167 22.528C92.5607 22.08 90.3527 20.4587 89.3927 17.664C89.2647 17.2374 89.1581 16.7894 89.0727 16.32C88.9874 15.7227 88.9874 15.0187 89.0727 14.208C89.0727 14.144 89.0727 14.0907 89.0727 14.048C89.3074 12.6614 89.8087 11.4987 90.5767 10.56C90.8541 10.176 91.2594 9.79202 91.7927 9.40802C92.9661 8.55469 94.4167 8.06402 96.1447 7.93602ZM97.5847 9.92002C97.2647 9.85602 96.8594 9.84536 96.3687 9.88802C95.4087 10.0587 94.7367 10.5387 94.3527 11.328C94.1394 11.776 94.0007 12.4267 93.9367 13.28V13.568H96.9127H99.9207L99.8887 13.408C99.6754 11.424 98.9074 10.2614 97.5847 9.92002ZM110.972 7.93602H112.988C113.713 8.00002 114.321 8.12802 114.812 8.32002L115.036 8.38402L115.612 8.16002L116.188 7.90402H116.54C116.774 7.90402 116.924 7.92536 116.988 7.96802C117.116 8.05336 117.19 8.26669 117.212 8.60802C117.212 8.80002 117.212 9.25869 117.212 9.98402C117.212 11.2 117.137 11.8614 116.988 11.968C116.902 12.0107 116.593 12.032 116.06 12.032C115.526 12.032 115.217 12.0107 115.132 11.968C114.982 11.8614 114.908 11.7227 114.908 11.552C114.908 10.8907 114.598 10.4107 113.98 10.112C113.468 9.85602 112.774 9.72802 111.9 9.72802C111.068 9.72802 110.417 9.82402 109.948 10.016C109.393 10.2507 109.116 10.6454 109.116 11.2C109.116 11.2854 109.137 11.3814 109.18 11.488C109.244 11.7654 109.478 12 109.884 12.192C110.182 12.3627 110.94 12.5654 112.156 12.8C113.265 12.992 114.044 13.152 114.492 13.28C115.772 13.728 116.742 14.432 117.404 15.392C117.702 15.8827 117.916 16.3627 118.044 16.832C118.086 17.0454 118.108 17.3654 118.108 17.792C118.108 18.24 118.086 18.5707 118.044 18.784C117.766 20.2774 116.956 21.3334 115.612 21.952C115.036 22.2294 114.321 22.4214 113.468 22.528C113.318 22.5494 112.892 22.56 112.188 22.56C111.42 22.56 110.737 22.496 110.14 22.368C109.756 22.2614 109.382 22.1227 109.02 21.952L108.668 21.792L107.9 22.176L107.1 22.592H106.78C106.524 22.592 106.364 22.5707 106.3 22.528C106.172 22.464 106.097 22.272 106.076 21.952C106.076 21.7387 106.076 21.1307 106.076 20.128C106.076 18.656 106.14 17.8667 106.268 17.76C106.374 17.696 106.684 17.664 107.196 17.664C107.75 17.664 108.07 17.6854 108.156 17.728C108.22 17.7707 108.326 17.9627 108.476 18.304C108.881 19.4774 109.67 20.2027 110.844 20.48C111.804 20.736 112.785 20.7254 113.788 20.448C114.534 20.192 114.961 19.7547 115.068 19.136C115.196 18.368 114.801 17.792 113.884 17.408C113.542 17.2587 112.881 17.0987 111.9 16.928C110.918 16.7574 110.374 16.6507 110.268 16.608C108.262 16.1387 106.95 15.1787 106.332 13.728C106.268 13.5574 106.214 13.3867 106.172 13.216C106.129 13.024 106.108 12.7254 106.108 12.32C106.108 11.9147 106.118 11.648 106.14 11.52C106.417 10.176 107.153 9.20536 108.348 8.60802C109.073 8.22402 109.948 8.00002 110.972 7.93602Z" fill="black"/>
</svg>
