<svg width="95" height="23" viewBox="0 0 95 23" fill="none" xmlns="http://www.w3.org/2000/svg">
<g clip-path="url(#clip0_28_1835)">
<path fill-rule="evenodd" clip-rule="evenodd" d="M24.9495 8.13843H34.5514V9.89952H30.7707V19.8271H28.6985V9.89952H24.9336L24.9495 8.13843V8.13843M34.1402 11.3645H35.9119V13.0009H35.9435C36.0068 12.7671 36.1175 12.549 36.2757 12.3308C36.4339 12.1126 36.6237 11.91 36.861 11.7385C37.0825 11.5515 37.3356 11.4113 37.6203 11.3022C37.8892 11.1931 38.174 11.1307 38.4587 11.1307C38.5973 11.1307 38.7112 11.1368 38.7963 11.1414V11.1414C38.8472 11.1441 38.8879 11.1463 38.9174 11.1463C38.9965 11.1619 39.0915 11.1775 39.1705 11.1775V12.9697C39.044 12.9386 38.9016 12.923 38.7593 12.9074L38.7205 12.9031C38.5936 12.8891 38.4773 12.8762 38.348 12.8762C38.0316 12.8762 37.731 12.9386 37.4463 13.0633C37.1616 13.1879 36.9243 13.375 36.7028 13.6087C36.4972 13.8581 36.3232 14.1542 36.1966 14.5126C36.0701 14.8711 36.0068 15.2919 36.0068 15.7594V19.7803H34.1086L34.1402 11.3645V11.3645M46.0041 19.8271H47.8707H47.8865V11.3645H45.9883V16.2737C45.9883 16.601 45.9566 16.9127 45.8775 17.1932C45.7985 17.4738 45.6877 17.7231 45.5137 17.9257C45.3555 18.1283 45.1341 18.2842 44.8651 18.4089C44.5962 18.5335 44.264 18.5959 43.8686 18.5959C43.3466 18.5959 42.9353 18.44 42.6505 18.1283C42.35 17.8322 42.2076 17.3023 42.2076 16.5543V11.3645H40.3094V16.7413C40.3094 17.8478 40.5625 18.6894 41.0687 19.2349C41.5749 19.7959 42.3974 20.0609 43.5206 20.0609C43.9951 20.0609 44.4697 19.9362 44.9284 19.6712C45.3872 19.4063 45.7352 19.079 45.9725 18.6426H46.0041V19.8271V19.8271M51.0977 17.1153C51.161 17.6608 51.3667 18.0348 51.7305 18.2686C52.0943 18.4868 52.5372 18.5959 53.0434 18.5959C53.2174 18.5959 53.4231 18.5803 53.6445 18.5491C53.866 18.5179 54.0875 18.4712 54.2773 18.3933C54.4829 18.3153 54.6411 18.2062 54.7677 18.0504C54.8942 17.8945 54.9575 17.7075 54.9417 17.4737C54.9259 17.24 54.8468 17.0374 54.6728 16.8815C54.4988 16.7257 54.2931 16.6166 54.04 16.5075C53.7869 16.414 53.4864 16.3361 53.1542 16.2737C52.8839 16.223 52.6137 16.162 52.3349 16.099L52.1418 16.0555C51.7938 15.9776 51.4457 15.8841 51.1136 15.775C50.7814 15.6659 50.4966 15.5256 50.2277 15.323C49.9746 15.136 49.7531 14.9022 49.6108 14.6061C49.4526 14.31 49.3735 13.9672 49.3735 13.5308C49.3735 13.0632 49.4842 12.6892 49.7215 12.3775C49.943 12.0658 50.2435 11.8164 50.5915 11.6294C50.9395 11.4424 51.335 11.3021 51.7621 11.2242C52.1892 11.1463 52.6005 11.1151 52.9802 11.1151C53.4231 11.1151 53.8502 11.1619 54.2457 11.2554C54.6411 11.3489 55.0208 11.4892 55.3371 11.7073C55.6693 11.9099 55.9383 12.1905 56.1439 12.5178C56.3654 12.845 56.4919 13.2502 56.5552 13.7178H54.5778C54.4829 13.2658 54.2773 12.9697 53.9609 12.8139C53.6287 12.658 53.2649 12.5801 52.8378 12.5801C52.7112 12.5801 52.5373 12.5957 52.3633 12.6113H52.3632C52.1734 12.6424 52.0152 12.6736 51.8412 12.7359C51.683 12.7983 51.5407 12.8918 51.4299 13.0009C51.3192 13.11 51.2559 13.2658 51.2559 13.4529C51.2559 13.6866 51.335 13.8581 51.4932 13.9983C51.6514 14.1386 51.857 14.2477 52.126 14.3568C52.379 14.4503 52.6796 14.5282 53.0118 14.5905C53.344 14.6529 53.692 14.7308 54.04 14.8087C54.388 14.8867 54.7202 14.9802 55.0524 15.0893C55.3846 15.1984 55.6852 15.3386 55.9383 15.5412C56.1914 15.7282 56.4128 15.962 56.571 16.2425C56.7292 16.5231 56.8083 16.8815 56.8083 17.2867C56.8083 17.7854 56.6975 18.2062 56.4603 18.5647C56.223 18.9076 55.9224 19.2037 55.5586 19.4219C55.1948 19.64 54.7677 19.7959 54.3247 19.905C53.866 19.9985 53.4231 20.0608 52.9802 20.0608C52.4423 20.0608 51.9361 19.9985 51.4774 19.8738C51.0186 19.7491 50.6074 19.5621 50.2752 19.3284C49.943 19.079 49.6741 18.7829 49.4842 18.4088C49.2944 18.0504 49.1837 17.614 49.1679 17.0997H51.0819V17.1153H51.0977V17.1153M58.7856 11.3642H57.3461V12.7513H58.7856V17.7384C58.8014 18.0813 58.8331 18.4086 58.8963 18.6735C58.9596 18.9385 59.0703 19.1567 59.2443 19.3437C59.4183 19.5151 59.6556 19.6554 59.9562 19.7489C60.2567 19.8424 60.6522 19.8892 61.1584 19.8892C61.3799 19.8892 61.5697 19.8892 61.7753 19.858H61.7754C61.981 19.8424 62.1866 19.8268 62.3923 19.7956V18.3462C62.2782 18.3743 62.1514 18.3898 62.0348 18.4039L61.9968 18.4086C61.8702 18.4242 61.7279 18.4242 61.6013 18.4242C61.3799 18.4242 61.2217 18.393 61.0951 18.3462C60.9844 18.2995 60.8895 18.2216 60.8262 18.1281C60.7788 18.0346 60.7313 17.9099 60.7155 17.7696C60.6997 17.6138 60.6838 17.4579 60.6838 17.2553V12.7357H62.3923V11.3486H60.6838V8.80831H58.7856V11.3642V11.3642M63.7369 11.3645H65.5086V12.5178H65.5402C65.8092 12.0191 66.173 11.6762 66.6476 11.458C67.1221 11.2398 67.6283 11.1307 68.1978 11.1307C68.878 11.1307 69.4633 11.2398 69.9695 11.4892C70.4757 11.723 70.887 12.0347 71.2192 12.4554C71.5513 12.8607 71.8044 13.3438 71.9626 13.8893C72.1208 14.4347 72.2157 15.0269 72.2157 15.6348C72.2157 16.2114 72.1366 16.7569 71.9943 17.2868C71.8361 17.8166 71.6146 18.2998 71.3141 18.705C71.0135 19.1102 70.6339 19.4375 70.1593 19.6868C69.6847 19.9362 69.1469 20.0609 68.5142 20.0609C68.2452 20.0609 67.9605 20.0297 67.6916 19.9829C67.4227 19.9362 67.1538 19.8583 66.9007 19.7492C66.6476 19.6401 66.4103 19.4998 66.2046 19.3284C65.9832 19.1569 65.8092 18.9543 65.6668 18.7361H65.6352V22.9596H63.7369V11.3645V11.3645M70.1909 14.4971C70.3017 14.8555 70.3491 15.2296 70.3491 15.6036C70.3491 15.9776 70.3017 16.3361 70.2226 16.7101C70.1435 17.0686 70.0011 17.3803 69.8113 17.6608C69.6056 17.9257 69.3684 18.1595 69.0678 18.3309C68.7672 18.5024 68.4192 18.5959 67.9763 18.5959C67.5808 18.5959 67.2486 18.518 66.9481 18.3621C66.6475 18.2063 66.3944 18.0037 66.1888 17.7387C65.9673 17.4738 65.825 17.1621 65.7142 16.8036C65.6035 16.4452 65.556 16.0556 65.556 15.6192C65.556 14.7153 65.7617 13.9828 66.1572 13.4373C66.5684 12.8918 67.1696 12.6269 67.9605 12.6269C68.3401 12.6269 68.6882 12.7048 68.9887 12.8762C69.2734 13.0477 69.5265 13.2659 69.7322 13.5464C69.9378 13.8269 70.096 14.1386 70.1909 14.4971V14.4971M73.6868 8.13843H75.5851V9.8988H73.6868V8.13843V8.13843M75.5851 11.3645H73.6868V19.8271H75.5851V11.3645V11.3645M77.2777 8.13843H79.176V19.8271H77.2777V8.13843V8.13843M83.1307 19.718C83.6685 19.9518 84.2854 20.0609 84.9656 20.0609C85.6617 20.0609 86.2628 19.9362 86.8006 19.718C87.3384 19.4998 87.7972 19.1881 88.161 18.7985C88.5248 18.3933 88.7937 17.9257 88.9994 17.3803C89.205 16.8348 89.3 16.2426 89.3 15.588C89.3 14.949 89.1892 14.3568 88.9994 13.8113C88.8096 13.2659 88.5248 12.7827 88.161 12.3931C87.7814 12.0035 87.3384 11.6918 86.8006 11.4736C86.2628 11.2398 85.6458 11.1307 84.9656 11.1307C84.2854 11.1307 83.6685 11.2554 83.1307 11.4736C82.5928 11.6918 82.1341 12.0035 81.7703 12.3931C81.4064 12.7983 81.1217 13.2659 80.9319 13.8113C80.7262 14.3568 80.6313 14.949 80.6313 15.588C80.6313 16.227 80.742 16.8348 80.9319 17.3803C81.1217 17.9257 81.4064 18.4089 81.7703 18.7985C82.1499 19.1881 82.5928 19.4842 83.1307 19.718V19.718M84.9656 18.5803C85.3768 18.5803 85.7565 18.4868 86.0571 18.3154C86.3734 18.1439 86.6107 17.9102 86.8163 17.6296C87.022 17.3491 87.1644 17.0218 87.2593 16.6789C87.3542 16.3205 87.4016 15.962 87.4016 15.588C87.4016 15.2296 87.3542 14.8711 87.2593 14.5127C87.1644 14.1542 87.022 13.8425 86.8163 13.562C86.6107 13.2814 86.3576 13.0633 86.0571 12.8918C85.7407 12.7204 85.3768 12.6269 84.9656 12.6269C84.5543 12.6269 84.1746 12.7204 83.8741 12.8918C83.5577 13.0633 83.3204 13.297 83.1148 13.562C82.9091 13.8425 82.7668 14.1542 82.6718 14.5127C82.5769 14.8711 82.5295 15.2296 82.5295 15.588C82.5295 15.962 82.5769 16.3205 82.6718 16.6789C82.7668 17.0374 82.9091 17.3491 83.1148 17.6296C83.3204 17.9102 83.5735 18.1439 83.8741 18.3154C84.1904 18.5024 84.5543 18.5803 84.9656 18.5803V18.5803M91.3089 11.3642H89.8694V12.7513H91.3089V17.7384C91.3247 18.0813 91.3563 18.4086 91.4196 18.6735C91.4829 18.9385 91.5936 19.1567 91.7676 19.3437C91.9416 19.5151 92.1789 19.6554 92.4795 19.7489C92.78 19.8424 93.1755 19.8892 93.6817 19.8892C93.9031 19.8892 94.093 19.8892 94.2986 19.858C94.5043 19.8424 94.7099 19.8268 94.9155 19.7956V18.3462C94.8015 18.3743 94.6747 18.3898 94.5581 18.4039C94.5453 18.4055 94.5326 18.407 94.5201 18.4086C94.3935 18.4242 94.2512 18.4242 94.1246 18.4242C93.9031 18.4242 93.745 18.393 93.6184 18.3462C93.5077 18.2995 93.4128 18.2216 93.3495 18.1281C93.302 18.0346 93.2546 17.9099 93.2387 17.7696C93.2229 17.6138 93.2071 17.4579 93.2071 17.2553V12.7357H94.9155V11.3486H93.2071V8.80831H91.3089V11.3642V11.3642" fill="white"/>
<path d="M22.7344 8.13823H14.0499L11.3766 0.00292969L8.68739 8.13823L0.00292969 8.12265L7.02643 13.1566L4.33725 21.2919L11.3607 16.258L18.3842 21.2919L15.7109 13.1566L22.7344 8.13823V8.13823" fill="#00B67A"/>
<path d="M16.3124 14.9958L15.7113 13.1567L11.377 16.2581L16.3124 14.9958V14.9958" fill="#005128"/>
</g>
<defs>
<clipPath id="clip0_28_1835">
<rect width="95" height="23" fill="white"/>
</clipPath>
</defs>
</svg>
