<svg width="46" height="24" viewBox="0 0 46 24" fill="none" xmlns="http://www.w3.org/2000/svg">
<g clip-path="url(#clip0_141_2657)">
<path d="M6.3529 0H39.6458C41.8758 0 43.6862 1.81044 43.6862 4.0404V19.9596C43.6862 22.1896 41.8758 24 39.6458 24H6.3529C4.12294 24 2.3125 22.1896 2.3125 19.9596V4.0404C2.3125 1.81044 4.12294 0 6.3529 0V0" fill="white"/>
<path d="M6.3529 0H39.6458C41.8758 0 43.6862 1.81044 43.6862 4.0404V19.9596C43.6862 22.1896 41.8758 24 39.6458 24H6.3529C4.12294 24 2.3125 22.1896 2.3125 19.9596V4.0404C2.3125 1.81044 4.12294 0 6.3529 0V0" stroke="#EEEEEE" stroke-width="1.0101"/>
<path d="M12.1714 5.65625H33.8482L34.7371 5.71686L35.2826 5.79766L35.7068 5.89867L36.03 6.01989L36.4139 6.22191L36.7371 6.46433L36.9997 6.70676L37.1411 6.84817L37.4038 7.1916L37.5856 7.51484L37.6866 7.73706L37.8078 8.10069L37.9088 8.62595L37.9694 9.1714L38.0098 9.95928L38.03 11.2118V12.7068L38.0098 13.9997L37.9694 14.7876L37.9088 15.3128L37.8078 15.8179L37.6664 16.2421L37.5048 16.5653L37.323 16.8482L37.1411 17.0704L36.9189 17.3128L36.6361 17.5552L36.3331 17.7573L36.0098 17.9189L35.5856 18.0603L35.1007 18.1613L34.3735 18.2421L33.4442 18.2825H12.4543L11.5654 18.2421L10.8381 18.1613L10.3937 18.0603L10.0704 17.9593L9.7674 17.8179L9.48457 17.6562L9.16134 17.3936L8.7977 17.03L8.55528 16.7068L8.37346 16.3835L8.21185 15.9593L8.11083 15.535L8.03003 14.9694L7.98962 14.4845L7.96942 14.0805L7.94922 13.1108V10.6461L7.96942 9.85827L8.00982 9.1714L8.07043 8.62595L8.17144 8.1209L8.33306 7.63605L8.51488 7.29261L8.7169 7.00979L8.95932 6.72696L9.12094 6.56534L9.34316 6.38352L9.66639 6.1613L9.98962 5.99968L10.3533 5.87847L10.7977 5.77746L11.2219 5.71686L11.7674 5.67645L12.1714 5.65625" fill="#FEB0CF"/>
<path d="M11.7266 9.25293H12.9185L12.9387 9.27313V11.9398L13.1407 11.8186L13.4841 11.5762L13.7468 11.3539L13.9488 11.1721L14.1104 10.9903L14.272 10.7883L14.4942 10.4246L14.6559 10.061L14.7569 9.69737L14.8175 9.27313L14.8377 9.25293H15.969V9.49535L15.9286 9.85899L15.8074 10.364L15.6458 10.7681L15.4437 11.1317L15.2619 11.3741L15.0801 11.5964L14.8175 11.859L14.5952 12.0408L14.5346 12.1014L14.6155 12.2226L14.7973 12.4651L15.1205 12.8893L15.4235 13.2933L15.7064 13.657L15.9488 13.9802L16.2114 14.3236L16.4134 14.5863L16.4336 14.6671H14.9993L14.8983 14.5661L14.5952 14.162L14.272 13.7378L14.0296 13.4145L13.7064 12.9903L13.4235 12.6065L13.1407 12.2428L12.9791 12.0206L12.9589 12.0004L12.9387 14.3842L12.9185 14.6671H11.7266V9.25293" fill="#0B061E"/>
<path d="M31.7275 10.8281H32.1113L32.3942 10.8887L32.6366 10.9897L32.8588 11.1312L33.0406 11.313L33.182 11.515L33.2628 11.6362L33.182 11.2524L33.1416 11.0301L33.1618 10.9291H34.2527L34.2729 10.9493V14.6261L34.2325 14.6665H33.2224L33.1416 14.6463L33.1618 14.4241L33.2426 14.0604L33.283 13.9392L33.2224 13.9998L33.081 14.2221L32.9598 14.3635L32.7578 14.5251L32.475 14.6665L32.2729 14.7271L32.1315 14.7473H31.6669L31.3841 14.6867L31.081 14.5655L30.8588 14.4241L30.6164 14.2221L30.3942 13.919L30.2527 13.6362L30.1517 13.313L30.1113 13.0908V12.4847L30.1921 12.1211L30.2931 11.8584L30.4144 11.6362L30.6164 11.3736L30.8386 11.1716L31.1416 10.9897L31.4043 10.8887L31.7275 10.8281" fill="#0B061E"/>
<path d="M20.0498 10.8281H20.474L20.7972 10.9089L21.1205 11.0705L21.3225 11.2524L21.4639 11.414L21.6053 11.6362L21.6457 11.6564L21.5649 11.4544L21.5043 11.111V10.9291H22.5952L22.6154 10.9493V14.5049L22.5952 14.6463L22.575 14.6665H21.5649L21.5043 14.6463V14.4645L21.5851 14.0604V13.9796L21.4235 14.2221L21.2417 14.4241L20.9588 14.6059L20.6356 14.7271L20.4942 14.7473H20.0094L19.7265 14.6867L19.4639 14.5857L19.2013 14.4241L18.9993 14.2423L18.8578 14.1009L18.6356 13.7372L18.4942 13.313L18.4336 12.8281L18.4538 12.5453L18.5144 12.2019L18.6154 11.8988L18.7972 11.5756L19.0397 11.2928L19.3023 11.0908L19.6255 10.9291L19.9285 10.8483L20.0498 10.8281" fill="#0B061E"/>
<path d="M27.9089 10.8281H28.3533L28.717 10.9089L28.9392 11.0099L29.1412 11.1312L29.3634 11.3332L29.5048 11.5352L29.6058 11.7372L29.6867 12.02L29.7069 12.3029V14.2221L29.6867 14.6463L29.6664 14.6665H28.5755L28.5553 14.6463L28.5351 12.4443L28.4543 12.1817L28.3331 12.02L28.1917 11.919L28.0099 11.8584H27.6462L27.3836 11.9594L27.222 12.1009L27.0806 12.3837L27.0604 12.5049L27.0402 14.6463L27.02 14.6665H25.8887V10.9493L25.9089 10.9291H26.9998V11.111L26.9392 11.4544L26.8786 11.6564H26.919L26.9594 11.5352L27.121 11.2928L27.2826 11.111L27.4846 10.9695L27.6462 10.8887L27.9089 10.8281" fill="#0B061E"/>
<path d="M16.8379 9.25293H17.9692V14.6267L17.9288 14.6671H16.8379V9.25293" fill="#0B061E"/>
<path d="M25.1204 10.8887L25.4032 10.9089L25.4234 10.9291V12.0402H24.8779L24.6355 12.1614L24.4941 12.323L24.4133 12.4846L24.3729 12.6462L24.3527 13.2927L24.3325 14.6664H23.2012V10.9291H24.3123L24.2921 11.2119L24.2315 11.4947L24.1709 11.6563L24.2315 11.5957L24.3931 11.2927L24.5345 11.1311L24.8173 10.9493L24.9587 10.9089L25.1204 10.8887" fill="#0B061E"/>
<path d="M12.515 9.43457H12.6564L12.717 9.49518L12.7574 9.7376L12.7776 10.182L12.7574 11.5558L12.7776 12.0204L12.7978 12.1012L12.7776 12.182L12.7574 12.2427V12.6871L12.7372 13.4952L12.7776 13.5154V13.5558H12.7372L12.7776 13.6366H12.7372L12.7574 13.7982L12.7372 13.879H12.7776L12.7574 13.9194V14.081L12.7372 14.1214V14.4447L12.6766 14.5053L12.3938 14.4649L11.9897 14.4447H11.9493L11.9089 14.4851L11.8685 14.4043H11.9089L11.8685 14.3437L11.8281 13.2932V10.1214L11.8483 9.65679L11.9493 9.49518L12.0301 9.47497L12.3332 9.49518L12.4342 9.51538L12.4544 9.45477L12.515 9.43457" fill="#0B061E"/>
<path d="M11.7266 9.25293H12.9185L12.9387 9.27313V11.9398L13.1407 11.8186L13.4841 11.5762L13.7468 11.3539L13.9488 11.1721L14.1104 10.9903L14.272 10.7883L14.4942 10.4246L14.6559 10.061L14.7569 9.69737L14.8175 9.27313L14.8377 9.25293H15.969V9.49535L15.9286 9.85899L15.8074 10.364L15.6458 10.7681L15.4437 11.1317L15.2619 11.3741L15.0801 11.5964L14.8175 11.859L14.5952 12.0408L14.5346 12.1014L14.6155 12.2226L14.7973 12.4651L15.1205 12.8893L15.4235 13.2933L15.7064 13.657L15.9488 13.9802L16.2114 14.3236L16.4134 14.5863L16.4336 14.6671H14.9993L14.8983 14.5661L14.5952 14.162L14.272 13.7378L14.0296 13.4145L13.7064 12.9903L13.4235 12.6065L13.1407 12.2428L12.9791 12.0206L12.9589 12.0004L12.9387 14.3842L12.9185 14.6671H11.7266V9.25293M15.5649 9.41455L15.4235 9.45495H15.0801L14.9791 9.49535V9.55596L14.9387 9.57616L14.8579 9.85899L14.7771 10.1014V10.1822H14.7367L14.6559 10.364L14.5346 10.5863L14.4134 10.7681L14.2518 10.9903V11.0307H14.2114L14.0296 11.2529L13.9286 11.3337V11.3741L13.8276 11.4145L13.5447 11.6772L13.2417 11.8792L13.1609 11.9196L13.1407 12.0408L13.2417 12.1822H13.2821L13.3225 12.263L13.4639 12.4651L13.4841 12.5055H13.5245L13.5447 12.5863L13.6862 12.7681L13.767 12.8893L13.8276 12.9701H13.868L13.9084 13.0913L14.07 13.2731L14.1104 13.3539H14.1508L14.1912 13.4347L14.2518 13.5358H14.2922L14.3124 13.6166H14.3528L14.3932 13.7176L14.4538 13.7984H14.4942L14.5346 13.8994L14.7165 14.1216L14.8579 14.3034L14.9589 14.4448L15.0599 14.5257L15.1205 14.5459H15.6458L15.9892 14.5055L16.0094 14.4853V14.3236L15.969 14.3034L15.9084 14.1822H15.868L15.8276 14.0812L15.7266 13.9398H15.6862L15.6458 13.8388L15.5043 13.6368L15.4841 13.5964H15.4437L15.4033 13.4954L15.3023 13.3943L15.2821 13.3337H15.2417L15.2013 13.2327L15.0801 13.0711H15.0397L14.9993 12.9903L14.8983 12.8287H14.8579L14.8175 12.7479L14.6155 12.4651L14.5346 12.364L14.4538 12.1822V12.0812L14.4942 12.0408L14.5548 11.9196L14.5952 11.8994V11.859L14.6761 11.8186L14.8579 11.657L14.9185 11.5762V11.5358L14.9791 11.5156L15.0599 11.4145L15.1609 11.3135L15.2417 11.1923V11.1519H15.2821L15.3427 11.0307L15.4437 10.8691L15.4841 10.7681V10.6873L15.5245 10.6671L15.5851 10.5257L15.666 10.2024L15.7266 10.0408L15.767 9.65697V9.47515L15.7064 9.41455H15.5649M12.5144 9.43475L12.4336 9.47515V9.51556L12.2114 9.49535L12.0094 9.47515L11.9084 9.53576L11.8478 9.65697L11.8276 10.1418V13.2933L11.868 14.3438L11.9084 14.4044L11.868 14.4246L11.9286 14.4853L11.969 14.4246L11.9892 14.4448L12.3932 14.4651L12.6761 14.5055L12.7367 14.4448V14.1014L12.7569 14.061V13.9196L12.7771 13.8792H12.7367L12.7569 13.7782L12.7367 13.6368H12.7771L12.7367 13.556H12.7771V13.5156L12.7367 13.4954L12.7569 12.5257V12.2024L12.7771 12.1014L12.7973 12.0408L12.7771 12.0206L12.7569 11.4954L12.7771 10.1822L12.7569 9.73778L12.7165 9.49535L12.6357 9.43475H12.5144" fill="#050314"/>
<path d="M27.9089 10.8281H28.3533L28.717 10.9089L28.9392 11.0099L29.1412 11.1312L29.3634 11.3332L29.5048 11.5352L29.6058 11.7372L29.6867 12.02L29.7069 12.3029V14.2221L29.6867 14.6463L29.6664 14.6665H28.5755L28.5553 14.6463L28.5351 12.4443L28.4543 12.1817L28.3331 12.02L28.1917 11.919L28.0099 11.8584H27.6462L27.3836 11.9594L27.222 12.1009L27.0806 12.3837L27.0604 12.5049L27.0402 14.6463L27.02 14.6665H25.8887V10.9493L25.9089 10.9291H26.9998V11.111L26.9392 11.4544L26.919 11.515L26.8382 11.5554L26.7574 11.5352L26.7776 11.2726L26.7574 11.212L26.7776 11.0908L26.6968 11.0705L26.6159 11.111L26.4543 11.1312L26.3735 11.1514H26.1715L26.0705 11.1716L26.0503 11.3332L26.0301 12.4039L26.0503 12.5857V12.9897V13.0503V13.313V13.3938V13.717L26.0705 13.818L26.0907 14.1413L26.0705 14.2423L26.0907 14.3837V14.4039L26.3937 14.4241L26.4947 14.4039L26.6361 14.4443H26.7978L26.8382 14.3837L26.818 14.2221L26.8382 14.1615L26.818 14.1413V13.1312L26.8382 12.9897L26.8584 12.9089L26.8786 12.5655L26.9594 12.2221L26.9998 12.1413H27.0402L27.0604 12.0604L27.1614 11.9594L27.323 11.818L27.5452 11.7372L27.7069 11.717H27.9089L28.1109 11.7574L28.3533 11.8786L28.4947 11.9796L28.6159 12.1817L28.6563 12.2625L28.6766 12.6059L28.6563 12.8685L28.6766 13.0301V13.5554L28.6968 14.0604V14.3433L28.7372 14.2625L28.7574 14.4039L28.7978 14.4241H29.2826L29.4846 14.4443V14.1817L29.5048 13.6564L29.525 13.2322V12.0807L29.4846 11.9392L29.424 11.7978L29.4038 11.6564L29.2422 11.4544L29.121 11.313L28.9796 11.1918L28.6766 11.0503L28.4543 10.9897L28.2725 10.9695L27.9897 10.9897L27.7271 11.0503L27.4442 11.1918L27.2826 11.3332H27.2422L27.222 11.4342L27.0604 11.5554L26.9796 11.5958L27.02 11.4342L27.222 11.1716L27.4442 10.9897L27.6462 10.8887L27.9089 10.8281" fill="#050314"/>
<path d="M32.0705 11.8184H32.2927L32.4543 11.8588L32.6563 11.9396L32.8583 12.1012L33.02 12.3234L33.1008 12.5254L33.1412 12.687V12.8891L33.0806 13.1315L32.9594 13.3739L32.8179 13.5355L32.5957 13.6769L32.3735 13.7578L32.1109 13.778L31.8482 13.7173L31.6058 13.5759L31.4442 13.4143L31.323 13.2123L31.2624 13.0709L31.2422 12.9497V12.6466L31.323 12.384L31.424 12.2022L31.5654 12.0406L31.7876 11.8992L31.9493 11.8386L32.0705 11.8184" fill="#FEB0CF"/>
<path d="M20.394 11.8184H20.6162L20.8183 11.8588L21.0607 11.98L21.2627 12.1618L21.3839 12.3638L21.4647 12.6062V13.0103L21.3637 13.2729L21.2021 13.4951L20.9799 13.6567L20.7981 13.7376L20.5556 13.778L20.3334 13.7578L20.0708 13.6567L19.889 13.5153L19.7274 13.3335L19.6263 13.1113L19.5859 12.9699V12.6466L19.6667 12.384L19.7678 12.2022L19.99 11.98L20.2324 11.8588L20.394 11.8184" fill="#FEB0CF"/>
<path d="M25.1204 10.8887L25.4032 10.9089L25.4234 10.9291V12.0402H24.8779L24.6355 12.1614L24.4941 12.323L24.4133 12.4846L24.3729 12.6462L24.3527 13.2927L24.3325 14.6664H23.2012V10.9291H24.3123L24.2921 11.2119H24.2517L24.2315 11.3937L24.1911 11.5351L24.0901 11.5149L24.0699 11.4947L24.0901 11.1715L24.0699 11.0705L23.9082 11.0907V11.1109L23.7466 11.1513H23.484L23.383 11.1917L23.3426 11.3735L23.3224 11.5351V12.6664L23.3426 13.6968L23.3628 14.2624L23.4032 14.3432L23.5244 14.4038L23.8072 14.424L23.9688 14.4644H24.1103L24.1305 14.4442L24.1507 13.8988V13.1715L24.1709 12.9695L24.1911 12.8887V12.5856H24.2315L24.2719 12.4038L24.2921 12.323H24.3325L24.3527 12.2422L24.4133 12.1816H24.4537L24.4739 12.0806L24.6153 11.9594L24.7769 11.919V11.8786L24.9385 11.8382H25.1204H25.1608L25.2416 11.7776V11.3533L25.2214 11.1715L25.2012 11.0705L24.9789 11.1109L24.7365 11.2321H24.6961V11.2725L24.5951 11.3533H24.5547L24.5143 11.4341L24.4133 11.5149L24.3123 11.5351L24.3325 11.3937L24.4941 11.1715L24.7163 11.0099L24.8779 10.9291L25.1204 10.8887" fill="#050314"/>
<path d="M11.748 9.27246H12.8996L12.9198 9.59569V12.1007L12.8996 14.626L12.8794 14.6462H11.748V9.27246M12.5157 9.43408L12.4349 9.47448V9.51489L12.2127 9.49468L12.0107 9.47448L11.9097 9.53509L11.8491 9.6563L11.8289 10.1411V13.2927L11.8693 14.3432L11.9097 14.4038L11.8693 14.424L11.9299 14.4846L11.9703 14.424L11.9905 14.4442L12.3945 14.4644L12.6773 14.5048L12.7379 14.4442V14.1007L12.7581 14.0603V13.9189L12.7783 13.8785H12.7379L12.7581 13.7775L12.7379 13.6361H12.7783L12.7379 13.5553H12.7783V13.5149L12.7379 13.4947L12.7581 12.525V12.2018L12.7783 12.1007L12.7986 12.0401L12.7783 12.0199L12.7581 11.4947L12.7783 10.1816L12.7581 9.73711L12.7177 9.49468L12.6369 9.43408H12.5157" fill="#040313"/>
<path d="M16.8796 9.27246H17.9301L17.9503 9.29266V14.525L17.9301 14.626H16.8796V13.9795L16.8998 13.5553L16.9604 13.5755L16.9806 13.7371L17.0008 14.0603L17.021 14.1209L17.0008 14.1411V14.2624L17.0412 14.2826L17.021 14.3634V14.323L16.9806 14.3432V14.3836H17.021L17.0614 14.4644L17.3846 14.4442L17.7079 14.4846L17.7483 14.4644L17.7685 14.3028V13.9997L17.7887 13.4947V10.2018L17.7685 9.6159L17.7281 9.45428H17.5664L17.4048 9.49468H17.0412L17.021 9.6159L16.9604 9.79771V10.7674L16.9402 10.9088V11.131L16.8998 11.2119L16.8796 10.323L16.8594 9.29266L16.8796 9.27246" fill="#040313"/>
<path d="M20.0498 10.8281H20.474L20.7972 10.9089L21.1205 11.0705L21.3225 11.2524L21.4639 11.414L21.5649 11.5756L21.5851 11.6564L21.6659 11.6968L21.6255 11.717V11.7574L21.5245 11.717L21.4235 11.6564V11.616H21.3831V11.5756L21.3225 11.5554L21.2417 11.4544L21.1205 11.2928L20.979 11.1716L20.7164 11.0301L20.5346 10.9695H20.272L20.1912 10.9897H20.0498L19.7063 11.0705L19.4639 11.1716L19.2417 11.313L19.1407 11.3938H19.1003V11.4342H19.0599L19.0195 11.5352L18.8982 11.717H18.8578L18.8376 11.818L18.6962 12.1009L18.5952 12.4847V12.9291L18.6356 13.2928L18.7164 13.4948L18.777 13.6766L18.8982 13.919L19.0195 14.0807V14.1211L19.1003 14.1615L19.3225 14.3433L19.5649 14.4847L19.9083 14.5857L20.0094 14.6059H20.4538L20.4942 14.6261L20.5144 14.5857L20.6356 14.5655L20.777 14.5251V14.4847L20.8982 14.4645L21.1205 14.3029H21.1609L21.1811 14.2423H21.2215L21.2417 14.1817H21.2821L21.3225 14.1009L21.4033 14.0402L21.4639 14.0604L21.4437 14.2019L21.2417 14.4241L20.9588 14.6059L20.6356 14.7271L20.4942 14.7473H20.0094L19.7265 14.6867L19.4639 14.5857L19.2013 14.4241L18.9993 14.2423L18.8578 14.1009L18.6356 13.7372L18.4942 13.313L18.4336 12.8281L18.4538 12.5453L18.5144 12.2019L18.6154 11.8988L18.7972 11.5756L19.0397 11.2928L19.3023 11.0908L19.6255 10.9291L19.9285 10.8483L20.0498 10.8281" fill="#050314"/>
<path d="M21.5059 10.9297H22.5968L22.617 10.9499V14.5054L22.5968 14.6469L22.5766 14.6671H21.5665L21.5059 14.6469V14.465L21.5867 14.061L21.6069 14.0004H21.6473V13.9398L21.7079 13.9196L21.7685 14.0206L21.7483 14.2226L21.7281 14.4448L21.7685 14.4852L21.9503 14.465H22.3745L22.3947 14.4044L22.415 14.1014L22.4352 14.0004L22.415 13.6974V12.4246L22.4352 12.2024L22.415 12.0812L22.4352 11.8792L22.415 11.2327L22.3745 11.1317L22.3543 11.1115H22.2129L22.0917 11.1519L21.7685 11.1721L21.7281 11.2125L21.7079 11.3337L21.6877 11.2529H21.6473V11.3337L21.5665 11.3539V11.2529H21.5261L21.5059 11.1115V10.9297" fill="#050315"/>
<path d="M31.7275 10.8281H32.1113L32.3942 10.8887L32.6366 10.9897L32.8588 11.1312L33.0406 11.313L33.182 11.515L33.2426 11.6564L33.3032 11.717L33.2628 11.7372L33.1214 11.6766L33.0608 11.6362V11.5958L32.98 11.5554L32.6972 11.212L32.4548 11.0503L32.2123 10.9897L32.1719 10.9695H31.9093L31.7275 10.9897L31.3841 11.0705L31.0002 11.2322L30.7982 11.3938L30.7376 11.414L30.6972 11.4948L30.6164 11.5756L30.5558 11.6968L30.475 11.818L30.4346 11.8988L30.3336 12.1413L30.3133 12.2221L30.2729 12.3635L30.2527 12.6059L30.2729 13.111L30.3133 13.2928L30.3336 13.3938L30.3133 13.4342L30.3538 13.4544L30.4144 13.6362L30.5154 13.8382L30.6164 13.9796L30.677 14.0807V14.1211L30.7376 14.1413V14.1817L30.8386 14.2221V14.2625L30.9396 14.3029L31.1012 14.4241L31.3841 14.5453L31.6265 14.6059H32.1517L32.2527 14.5857L32.2729 14.5453V14.5857L32.5154 14.4847L32.7174 14.3635L32.8184 14.2827H32.8588V14.2423L32.9598 14.1615L33.0406 14.0604L33.1214 14.1211L33.081 14.2221L32.9598 14.3635L32.7578 14.5251L32.475 14.6665L32.2729 14.7271L32.1315 14.7473H31.6669L31.3841 14.6867L31.081 14.5655L30.8588 14.4241L30.6164 14.2221L30.3942 13.919L30.2527 13.6362L30.1517 13.313L30.1113 13.0908V12.4847L30.1921 12.1211L30.2931 11.8584L30.4144 11.6362L30.6164 11.3736L30.8386 11.1716L31.1416 10.9897L31.4043 10.8887L31.7275 10.8281" fill="#050314"/>
<path d="M33.1608 10.9297H34.2517L34.2719 10.9499V14.6267L34.2315 14.6671H33.2214L33.1406 14.6469L33.1608 14.4246L33.2416 14.061L33.2618 14.0004H33.3022V13.9196H33.3426V13.96H33.383V14.1822L33.3224 14.4044L33.3426 14.5054L33.3628 14.5256H33.5447L33.5649 14.4852H34.0093L34.0699 14.4448L34.0901 14.3438H34.1305V14.2226L34.1507 14.1822V13.859L34.1709 13.6368H34.1305V13.3539L34.1103 13.2933L34.1305 13.2125L34.1103 13.1115V11.4953L34.0901 11.3539L34.0497 11.2327L34.0699 11.1115H33.9083L33.8275 11.1923H33.4841L33.4033 11.2327L33.3426 11.4145V11.657H33.3022V11.5964H33.2618L33.1608 11.1519L33.1406 10.9499L33.1608 10.9297" fill="#050315"/>
<path d="M20.475 11.6973L20.6972 11.7175L20.9599 11.7983L21.1215 11.8993L21.2023 11.9397V11.9801L21.2831 12.0003V12.0407L21.3437 12.0609L21.4851 12.2427L21.5861 12.5458L21.6265 12.8286V12.8488L21.5861 12.869V13.0104L21.4851 13.2932L21.3639 13.475L21.2629 13.5963L21.1619 13.6367V13.6771L20.9801 13.7983L20.6568 13.8993H20.5154L20.3942 13.8589L20.2124 13.8387L19.9902 13.7377L19.8083 13.6165L19.6871 13.5154L19.5659 13.3336L19.5457 13.2326L19.4851 13.2124L19.4245 12.97L19.4043 12.7074L19.4447 12.5053L19.5255 12.3033L19.5659 12.2427L19.6467 12.1417L19.7073 12.0407H19.7477L19.7881 11.9599L19.8285 11.8993H19.8891V11.8589L20.0508 11.7781L20.1922 11.7579L20.2124 11.7377L20.475 11.6973M20.3942 11.8185L20.1316 11.8993L19.9498 12.0205L19.7477 12.2225L19.6265 12.4851L19.5861 12.6468V12.97L19.6669 13.2124L19.7881 13.4144L19.9498 13.5761L20.1518 13.6973L20.3336 13.7579L20.5558 13.7781L20.7982 13.7377L21.0811 13.5963L21.2427 13.4548L21.3841 13.2326L21.4649 13.0104V12.6064L21.3841 12.3639L21.2629 12.1619L21.1215 12.0205L20.879 11.8791L20.7578 11.8387L20.6164 11.8185H20.3942" fill="#050314"/>
<path d="M32.1521 11.6973L32.4349 11.7377L32.6369 11.8185L32.8187 11.9195L32.9197 12.0003L32.9804 12.0609V12.1013L33.0612 12.1417L33.1824 12.3437L33.243 12.4649L33.2834 12.8488L33.243 13.0912L33.1218 13.3336L32.9804 13.5154L32.8995 13.5963H32.8591V13.6367L32.7379 13.7175L32.5157 13.8185H32.4551L32.4349 13.8589L32.2531 13.8993H32.1521L32.0511 13.8387L31.8288 13.8185L31.5056 13.6569L31.3642 13.5356L31.2632 13.3942L31.243 13.3336L31.1622 13.2528L31.1016 13.0508V12.5862L31.1622 12.3437L31.2228 12.2427L31.344 12.0811L31.4652 11.9397H31.5056V11.8993L31.6672 11.7983L31.849 11.7579L32.1521 11.6973M32.0713 11.8185L31.8288 11.8791L31.6268 12.0003L31.4652 12.1417L31.344 12.3235L31.2632 12.5458L31.243 12.6468V12.9498L31.2834 13.1114L31.4046 13.3538L31.5864 13.5559L31.8086 13.6973L31.9905 13.7579L32.2329 13.7781L32.5157 13.7175L32.7379 13.5963L32.8995 13.4548L33.041 13.2326L33.1218 12.9902L33.142 12.8892V12.6872L33.041 12.3639L32.8995 12.1417L32.7177 11.9801L32.5157 11.8791L32.4147 11.8387L32.2935 11.8185H32.0713" fill="#050314"/>
<path d="M11.7266 9.25293H12.9185L12.9387 9.27313V11.9398L13.0195 11.9196L12.9993 11.9802V12.0408L12.9589 12.0004L12.9387 14.3842L12.9185 14.6671H11.7266V9.25293M11.7468 9.27313V14.6469H12.8781L12.8983 14.6267L12.9185 11.6166V9.53576L12.8983 9.27313H11.7468" fill="#0C071F"/>
<path d="M16.3933 14.5859L16.4337 14.6667H14.9994L14.959 14.6465L14.9792 14.6061L15.0398 14.6263H16.3933V14.5859" fill="#0C071F"/>
<path d="M19.1617 11.1924L19.2021 11.2126L18.8789 11.5358V11.4752L19.0607 11.2732L19.1617 11.1924" fill="#09051A"/>
</g>
<defs>
<clipPath id="clip0_141_2657">
<rect width="46" height="24" fill="white"/>
</clipPath>
</defs>
</svg>
