<svg width="46" height="24" viewBox="0 0 46 24" fill="none" xmlns="http://www.w3.org/2000/svg">
<g clip-path="url(#clip0_141_2636)">
<path d="M34.0766 0.922852H11.9228C9.88357 0.922852 8.23047 2.57595 8.23047 4.61516V19.3844C8.23047 21.4236 9.88357 23.0767 11.9228 23.0767H34.0766C36.1158 23.0767 37.7689 21.4236 37.7689 19.3844V4.61516C37.7689 2.57595 36.1158 0.922852 34.0766 0.922852V0.922852" fill="white"/>
<path d="M34.0766 0.922852H11.9228C9.88357 0.922852 8.23047 2.57595 8.23047 4.61516V19.3844C8.23047 21.4236 9.88357 23.0767 11.9228 23.0767H34.0766C36.1158 23.0767 37.7689 21.4236 37.7689 19.3844V4.61516C37.7689 2.57595 36.1158 0.922852 34.0766 0.922852V0.922852" stroke="#EEEEEE" stroke-width="0.923077"/>
<path fill-rule="evenodd" clip-rule="evenodd" d="M34.8345 12.8252L34.2406 14.1004L34.2598 14.1163C34.4809 14.3089 34.6093 14.5887 34.6229 14.924L34.6241 14.9838C34.6241 15.6946 34.1384 16.216 33.3778 16.216H31.6072V16.2144H26.2074L25.7735 15.6804V16.2144H24.3516V15.3027C24.3516 15.3027 24.1574 15.43 23.7375 15.43H23.2535V16.2144H21.1007L20.7165 15.7019L20.3263 16.2144H16.7617V12.8266H20.3487L20.7336 13.3283L21.1312 12.8266H32.8597C32.8864 12.8257 32.9134 12.8252 32.9409 12.8252H34.8345V12.8252" fill="white"/>
<path d="M13.3817 8.3877H14.7805L15.2396 9.44402V8.3877H16.9786L17.2518 9.15119L17.5167 8.3877H25.3227V8.77153C25.3227 8.77153 25.7331 8.3877 26.4075 8.3877L28.9403 8.39655L29.3914 9.43903V8.3877H30.8466L31.2471 8.98654V8.3877H32.7157V11.7754H31.2471L30.8633 11.1747V11.7754H28.7253L28.5102 11.2414H27.9355L27.7239 11.7754H26.274C25.6937 11.7754 25.3227 11.3995 25.3227 11.3995V11.7754H23.1366L22.7027 11.2414V11.7754H14.5733L14.3584 11.2414H13.7855L13.5722 11.7754H11.9238L13.3817 8.3877V8.3877" fill="white"/>
<path fill-rule="evenodd" clip-rule="evenodd" d="M12.5762 11.3423L13.6672 8.80566H14.4943L15.5843 11.3423H14.8583L14.6581 10.8344H13.4878L13.2865 11.3423H12.5762V11.3423M14.4274 10.2836L14.0707 9.39596L13.7129 10.2836H14.4274V10.2836" fill="#016FD0"/>
<path d="M15.6602 11.3413V8.80469L16.6695 8.80844L17.2566 10.4439L17.8296 8.80469H18.831V11.3413H18.1968V9.47225L17.5246 11.3413H16.9684L16.2943 9.47225V11.3413H15.6602V11.3413" fill="#016FD0"/>
<path d="M19.2637 11.3413V8.80469H21.333V9.37209H19.9045V9.80603H21.2996V10.34H19.9045V10.7906H21.333V11.3413H19.2637V11.3413" fill="#016FD0"/>
<path fill-rule="evenodd" clip-rule="evenodd" d="M21.7012 11.3423V8.80566H23.1124C23.58 8.80566 23.9989 9.09482 23.9989 9.62858C23.9989 10.0849 23.6457 10.3789 23.3033 10.4077L24.1376 11.3423H23.3627L22.6023 10.4412H22.3353V11.3423H21.7012V11.3423M23.06 9.37289H22.3351V9.90689H23.0694C23.1966 9.90689 23.3605 9.80839 23.3605 9.63984C23.3605 9.50885 23.2339 9.37289 23.06 9.37289V9.37289" fill="#016FD0"/>
<path d="M24.9053 11.3413H24.2578V8.80469H24.9053V11.3413V11.3413" fill="#016FD0"/>
<path d="M26.4395 11.3413H26.2997C25.6235 11.3413 25.2129 10.8086 25.2129 10.0834C25.2129 9.34043 25.6189 8.80469 26.4729 8.80469H27.1738V9.40551H26.4472C26.1005 9.40551 25.8554 9.67597 25.8554 10.0897C25.8554 10.581 26.1357 10.7873 26.5396 10.7873H26.7065L26.4395 11.3413V11.3413" fill="#016FD0"/>
<path fill-rule="evenodd" clip-rule="evenodd" d="M26.7285 11.3423L27.8195 8.80566H28.6466L29.7365 11.3423H29.0106L28.8103 10.8344H27.6401L27.4388 11.3423H26.7285V11.3423M28.5799 10.2836L28.2233 9.39596L27.8655 10.2836H28.5799V10.2836" fill="#016FD0"/>
<path d="M29.8105 11.3413V8.80469H30.6168L31.6463 10.3985V8.80469H32.2804V11.3413H31.5002L30.4447 9.70588V11.3413H29.8105V11.3413" fill="#016FD0"/>
<path d="M17.1934 15.7808V13.2441H19.2627V13.8115H17.8343V14.2454H19.2294V14.7794H17.8343V15.23H19.2627V15.7808H17.1934V15.7808" fill="#016FD0"/>
<path d="M27.334 15.7808V13.2441H29.4034V13.8115H27.9749V14.2454H29.3634V14.7794H27.9749V15.23H29.4034V15.7808H27.334V15.7808" fill="#016FD0"/>
<path d="M19.3443 15.7808L20.3519 14.528L19.3203 13.2441H20.1193L20.7336 14.0378L21.3501 13.2441H22.1178L21.0997 14.5124L22.1092 15.7808H21.3104L20.7138 14.9996L20.1318 15.7808H19.3443V15.7808" fill="#016FD0"/>
<path fill-rule="evenodd" clip-rule="evenodd" d="M22.1855 15.7808V13.2441H23.5863C24.1611 13.2441 24.4968 13.6146 24.4968 14.0973C24.4968 14.6801 24.0687 14.9798 23.5039 14.9798H22.8364V15.7808H22.1855V15.7808M23.5391 13.8177H22.8361V14.4019H23.537C23.7223 14.4019 23.8521 14.2791 23.8521 14.1098C23.8521 13.9295 23.7216 13.8177 23.5391 13.8177V13.8177" fill="#016FD0"/>
<path fill-rule="evenodd" clip-rule="evenodd" d="M24.7715 15.7808V13.2441H26.1827C26.6503 13.2441 27.0693 13.5332 27.0693 14.0671C27.0693 14.5233 26.716 14.8172 26.3736 14.8462L27.208 15.7808H26.433L25.6727 14.8796H25.4056V15.7808H24.7715V15.7808M26.1306 13.8115H25.4057V14.3456H26.14C26.2671 14.3456 26.4311 14.2471 26.4311 14.0785C26.4311 13.9475 26.3045 13.8115 26.1306 13.8115V13.8115" fill="#016FD0"/>
<path d="M29.6978 15.7808V15.23H30.9669C31.1547 15.23 31.236 15.1285 31.236 15.0173C31.236 14.9106 31.1549 14.8028 30.9669 14.8028H30.3934C29.8948 14.8028 29.6172 14.4991 29.6172 14.0431C29.6172 13.6364 29.8715 13.2441 30.6123 13.2441H31.8472L31.5802 13.8149H30.5121C30.3079 13.8149 30.2451 13.922 30.2451 14.0243C30.2451 14.1295 30.3228 14.2454 30.4788 14.2454H31.0795C31.6352 14.2454 31.8764 14.5606 31.8764 14.9734C31.8764 15.4172 31.6077 15.7808 31.0492 15.7808H29.6978V15.7808" fill="#016FD0"/>
<path d="M32.0258 15.7808V15.23H33.2949C33.4828 15.23 33.5641 15.1285 33.5641 15.0173C33.5641 14.9106 33.4831 14.8028 33.2949 14.8028H32.7214C32.223 14.8028 31.9453 14.4991 31.9453 14.0431C31.9453 13.6364 32.1995 13.2441 32.9404 13.2441H34.1753L33.9083 13.8149H32.8402C32.6361 13.8149 32.5732 13.922 32.5732 14.0243C32.5732 14.1295 32.6509 14.2454 32.8068 14.2454H33.4077C33.9633 14.2454 34.2045 14.5606 34.2045 14.9734C34.2045 15.4172 33.9358 15.7808 33.3774 15.7808H32.0258V15.7808" fill="#016FD0"/>
</g>
<defs>
<clipPath id="clip0_141_2636">
<rect width="46" height="24" fill="white"/>
</clipPath>
</defs>
</svg>
