<svg width="46" height="24" viewBox="0 0 46 24" fill="none" xmlns="http://www.w3.org/2000/svg">
<g clip-path="url(#clip0_141_2629)">
<path d="M11.129 0.5H34.871C36.8701 0.5 38.5 2.13976 38.5 4.17391V19.8261C38.5 21.8602 36.8701 23.5 34.871 23.5H11.129C9.12986 23.5 7.5 21.8602 7.5 19.8261V4.17391C7.5 2.13976 9.12986 0.5 11.129 0.5V0.5" fill="white"/>
<path d="M11.129 0.5H34.871C36.8701 0.5 38.5 2.13976 38.5 4.17391V19.8261C38.5 21.8602 36.8701 23.5 34.871 23.5H11.129C9.12986 23.5 7.5 21.8602 7.5 19.8261V4.17391C7.5 2.13976 9.12986 0.5 11.129 0.5V0.5" stroke="#EEEEEE"/>
<path d="M19.9034 17.217C22.7539 17.217 25.0647 14.8811 25.0647 11.9996C25.0647 9.11814 22.7539 6.78223 19.9034 6.78223C17.0529 6.78223 14.7422 9.11814 14.7422 11.9996C14.7422 14.8811 17.0529 17.217 19.9034 17.217V17.217" fill="#E7001A"/>
<path d="M26.0968 17.217C28.9473 17.217 31.2581 14.8811 31.2581 11.9996C31.2581 9.11814 28.9473 6.78223 26.0968 6.78223C23.2463 6.78223 20.9355 9.11814 20.9355 11.9996C20.9355 14.8811 23.2463 17.217 26.0968 17.217V17.217" fill="#F49B1C"/>
<path opacity="0.3" fill-rule="evenodd" clip-rule="evenodd" d="M23 7.8252C24.2536 8.77707 25.0645 10.2925 25.0645 11.9995C25.0645 13.7064 24.2536 15.2219 23 16.1738C21.7464 15.2219 20.9355 13.7064 20.9355 11.9995C20.9355 10.2925 21.7464 8.77707 23 7.8252V7.8252" fill="#E7001A"/>
</g>
<defs>
<clipPath id="clip0_141_2629">
<rect width="46" height="24" fill="white"/>
</clipPath>
</defs>
</svg>
