<svg width="46" height="24" viewBox="0 0 46 24" fill="none" xmlns="http://www.w3.org/2000/svg">
<g clip-path="url(#clip0_141_2617)">
<path d="M11.6884 1.00293H34.311C36.2159 1.00293 37.7689 2.58236 37.7689 4.54167V19.618C37.7689 21.5773 36.2159 23.1567 34.311 23.1567H11.6884C9.78349 23.1567 8.23047 21.5773 8.23047 19.618V4.54167C8.23047 2.58236 9.78349 1.00293 11.6884 1.00293V1.00293" fill="white"/>
<path d="M11.6884 1.00293H34.311C36.2159 1.00293 37.7689 2.58236 37.7689 4.54167V19.618C37.7689 21.5773 36.2159 23.1567 34.311 23.1567H11.6884C9.78349 23.1567 8.23047 21.5773 8.23047 19.618V4.54167C8.23047 2.58236 9.78349 1.00293 11.6884 1.00293V1.00293" stroke="#EEEEEE" stroke-width="0.923077"/>
<path fill-rule="evenodd" clip-rule="evenodd" d="M23.2845 11.0011C23.275 11.7726 23.9505 12.2031 24.4595 12.4591C24.9823 12.7217 25.158 12.8902 25.156 13.125C25.152 13.4845 24.7389 13.6431 24.3522 13.6493C23.6958 13.6599 23.3069 13.4719 22.9991 13.3232L22.9736 13.3109L22.7307 14.4846C23.0435 14.6335 23.6227 14.7633 24.2235 14.7689C25.6335 14.7689 26.556 14.0505 26.561 12.9365C26.5642 12.0908 25.8856 11.723 25.3425 11.4287C24.9778 11.231 24.6743 11.0665 24.6795 10.8126C24.684 10.621 24.8611 10.4165 25.2493 10.3646C25.4414 10.3383 25.9717 10.3181 26.573 10.604L26.8089 9.46844C26.4857 9.34687 26.07 9.23047 25.5526 9.23047C24.2255 9.23047 23.292 9.95868 23.2845 11.0011V11.0011M29.0765 9.32831C28.8191 9.32831 28.6021 9.4833 28.5053 9.72127L26.4911 14.6855H27.9001L28.1805 13.8856H29.9023L30.065 14.6855H31.3068L30.2231 9.32831H29.0765V9.32831M29.6802 12.7872L29.2736 10.7755L28.5666 12.7872H29.6802V12.7872M21.5762 9.32831L20.4655 14.6855H21.8081L22.9182 9.32831H21.5762V9.32831M18.1924 12.9747L19.5899 9.32831H20.9999L18.8246 14.6855H17.4056L16.3349 10.4103C16.27 10.1472 16.2136 10.0503 16.0161 9.93967C15.6933 9.75838 15.1604 9.5889 14.6914 9.48385L14.7233 9.32831H17.008C17.2988 9.32831 17.5608 9.52816 17.6272 9.87422L18.1924 12.9747V12.9747" fill="#27337A"/>
</g>
<defs>
<clipPath id="clip0_141_2617">
<rect width="46" height="24" fill="white"/>
</clipPath>
</defs>
</svg>
