<svg width="20" height="20" viewBox="0 0 20 20" fill="none" xmlns="http://www.w3.org/2000/svg">
<path fill-rule="evenodd" clip-rule="evenodd" d="M10 2.5C5.85813 2.5 2.5 5.87813 2.5 10.0456C2.5 13.8125 5.2425 16.9337 8.82812 17.5V12.2269H6.92375V10.0456H8.82812V8.38312C8.82812 6.4925 9.94813 5.4475 11.6613 5.4475C12.4813 5.4475 13.34 5.595 13.34 5.595V7.45188H12.3938C11.4619 7.45188 11.1713 8.03312 11.1713 8.63062V10.0456H13.2513L12.9187 12.2269H11.1713V17.5C14.7575 16.9337 17.5 13.8125 17.5 10.0456C17.5 5.87813 14.1419 2.5 10 2.5V2.5" fill="#1878F3"/>
</svg>
