<svg width="20" height="20" viewBox="0 0 20 20" fill="none" xmlns="http://www.w3.org/2000/svg">
<g clip-path="url(#clip0_339_110)">
<path fill-rule="evenodd" clip-rule="evenodd" d="M19.3875 8.26172C19.5035 8.88771 19.5653 9.53917 19.5653 10.2183C19.5653 13.0091 18.5872 15.3781 16.8811 17.0365L16.6545 17.2487H13.5008V14.8479C14.4605 14.2183 15.1219 13.3 15.393 12.2146L15.4486 11.9613H10.1953V8.26172H19.3875V8.26172" fill="#318AF5"/>
<path fill-rule="evenodd" clip-rule="evenodd" d="M4.73372 11.8184C5.50154 14.079 7.65317 15.7614 10.1952 15.7614C11.3991 15.7614 12.439 15.4765 13.2771 14.987L13.5007 14.8484L16.6544 17.2493C15.0397 18.7096 12.8305 19.5662 10.1952 19.5662C6.49219 19.5662 3.27342 17.5468 1.61874 14.5701L1.47266 14.2968V11.8184H4.73372V11.8184" fill="#3DA751"/>
<path fill-rule="evenodd" clip-rule="evenodd" d="M4.73252 5.70508V8.18354C4.53731 8.75745 4.42669 9.37069 4.42669 10.0009C4.42669 10.5262 4.50351 11.0396 4.64208 11.5282L4.73252 11.8183L1.47145 14.2968C0.810997 13.0055 0.433594 11.5441 0.433594 10.0009C0.433594 8.58634 0.750717 7.24051 1.31229 6.0314L1.47145 5.70508H4.73252V5.70508" fill="#FDB900"/>
<path fill-rule="evenodd" clip-rule="evenodd" d="M10.1952 0.435547C12.7009 0.435547 14.8239 1.29543 16.481 2.71039L16.726 2.92676L13.9258 5.66984C12.9151 4.72289 11.6278 4.24038 10.1952 4.24038C7.73791 4.24038 5.64541 5.8125 4.81507 7.95929L4.73372 8.18337L1.47266 5.70492C3.07879 2.57922 6.37998 0.435547 10.1952 0.435547V0.435547" fill="#EA3E36"/>
</g>
<defs>
<clipPath id="clip0_339_110">
<rect width="20" height="20" fill="white"/>
</clipPath>
</defs>
</svg>
